<?xml version="1.0" encoding="UTF-8" standalone="yes"?>
<svg width="400" height="400" baseProfile="tiny-ps" fill-rule="evenodd" version="1.2" xmlns="http://www.w3.org/2000/svg">
  <title>bimi-svg-tiny-12-ps</title>
  <path d="M229.952 27.937c-.129.426-.846 4.114-1.593 8.196-10.292 56.268-9.813 118.901 1.509 197.461 6.338 43.979 10.052 53.78 24.507 64.669 6.508 4.903 23.747 14.334 29.113 15.927l2.015.599 42.727-43.039c41.614-41.917 44.852-45.34 47.926-50.653 8.31-14.364 6.945-32.76-3.474-46.812-2.922-3.941-5.357-6.519-27.551-29.168L268.555 66.8 238.82 36.434c-4.108-4.135-7.73-7.913-8.05-8.395-.564-.848-.589-.851-.818-.102m-129.04 77.273l-69.927 71.351c-11.07 14.613-11.961 34.082-2.228 48.724 2.858 4.299 6.22 7.779 76.708 79.403l40.741 41.454c19.707 20.087 21.503 21.637 29.771 25.697 19.63 9.642 39.123 7.79 56.836-5.4 3.191-2.376 42.759-41.94 42.16-42.155-.2-.072-.364-.484-.364-.916 0-.71-.178-.762-1.855-.547l-13.184 1.771c-22.731 3.078-31.358 3.124-43.376.234-19.883-4.782-27.938-15.017-35.524-45.138-9.224-36.626-19.564-50.73-50.982-69.542-24.981-14.958-33.478-23.737-37.391-38.633-4.473-17.025 4.654-32.954 28.992-50.598 20.073-14.552 28.387-28.179 28.729-47.087.137-7.555-.038-17.185-.311-17.153-.161.019-22.119 21.86-48.795 48.535m-14.793 50.608c-4.674 11.504-3.587 25.41 2.81 35.947 5.881 9.687 11.248 14.154 35.485 29.533 30.668 19.46 38.494 29.733 46.713 61.319 6.962 26.755 14.31 38.543 28.253 45.326 6.281 3.055 11.802 4.105 26.418 5.019 9.569.599 10.295.836 7.661 2.507-5.178 3.283-20.551 5.326-28.967 3.848-11.729-2.059-22.562-8.694-30.042-18.399-5.546-7.195-7.665-11.789-13.345-28.926-7.505-22.642-9.315-27.038-14.086-34.221-7.176-10.8-17.563-19.984-32.668-28.884-29.502-17.382-42.984-35.163-39.385-51.944 1.998-9.319 5.618-17.526 9.517-21.581 2.699-2.807 2.935-2.741 1.636.456" fill="#fbfbfb"/>
  <path d="M0 200v200h200 200V200 0H200 0v200M231.256 27.745c.183.296.23.705.103.91s-.061.268.145.141c.318-.197 11.009 10.523 35.293 35.391 2.9 2.97 5.273 5.608 5.273 5.861s.264.468.586.478.542.229.489.488.041.426.211.373 4.34 4.033 9.269 9.082l50.672 51.781c3.826 3.879 6.82 7.203 6.654 7.386s-.109.223.128.088 1.907 1.282 3.711 3.149l13.719 14.105c5.741 5.89 10.357 10.84 10.258 11.001s.081.509.401.775.589.329.598.141.529.26 1.156.993 1.031 1.524.898 1.758-.1.296.074.138 1.081.699 2.016 1.903c1.575 2.028 1.868 2.592 1.746 3.364-.026.161.173.249.442.195s.464.208.434.582.069.604.219.511c.381-.236 3.223 5.61 2.945 6.06-.124.201-.022.367.229.367s.351.272.223.606-.085.515.095.403c.437-.27 1.338 2.79.988 3.356-.179.289-.097.334.234.129.382-.236.459-.06.312.709-.12.626-.044.929.195.781s.315.156.196.782-.045.929.198.779c.254-.157.313.36.166 1.457-.13.962-.088 1.472.096 1.174.203-.328.376.303.461 1.681.076 1.214-.005 2.206-.179 2.206s-.192 1.696-.04 3.769c.197 2.682.154 3.694-.148 3.507-.292-.181-.353.188-.193 1.174.145.89.089 1.347-.147 1.201-.229-.142-.311.246-.204.971.108.737.026 1.114-.21.968s-.309.165-.191.784c.126.656.048.932-.215.769s-.33.054-.191.589.071.75-.195.585-.336.046-.195.586.071.751-.196.586-.336.046-.195.586c.164.628.09.762-.292.526-.319-.197-.418-.163-.261.09.338.548-.507 2.894-.946 2.623-.191-.118-.232.087-.09.455.173.452.109.58-.196.391s-.368-.061-.195.391c.188.491.119.584-.26.35-.34-.21-.424-.168-.246.121.309.498-2.587 5.281-3.005 4.964-.149-.113-.189-.095-.089.041.325.441-.599 1.736-1.043 1.462-.237-.147-.33-.103-.206.097s-.128.799-.56 1.33-.654.719-.495.417c.193-.365.137-.454-.168-.266-.251.156-.347.461-.212.679s-9.598 10.27-21.629 22.337l-25.482 25.732c-1.984 2.086-3.718 3.756-3.853 3.711s-.296.094-.359.309c-.192.661-2.925 3.299-3.225 3.113-.156-.096-.5.087-.766.407s-.346.582-.179.582-.008.344-.389.765-.804.729-.94.684-.301.094-.367.308c-.21.677-1.737 2.133-2.04 1.946-.159-.099-.529.127-.822.5-.491.626-.471.635.248.12.43-.307-5.194 5.45-12.497 12.793-9.818 9.872-13.515 13.352-14.184 13.352-.497 0-.805-.159-.685-.354s-.16-.255-.624-.134c-.54.142-.75.071-.586-.195s-.046-.336-.586-.195c-.628.164-.762.089-.526-.292.201-.324.164-.418-.099-.256-.506.313-6.032-2.272-5.658-2.647.146-.145-.066-.138-.47.018-.552.211-.656.152-.416-.235.203-.329.168-.424-.096-.261-.59.364-1.705-.136-1.401-.628.142-.229.068-.295-.168-.149-.532.329-2.479-.531-2.205-.974.111-.181-.099-.214-.467-.072-.491.188-.585.119-.351-.26.202-.327.168-.424-.093-.263-.539.334-3.705-1.466-3.322-1.888.162-.179.085-.204-.171-.058-.58.333-2.96-1.067-2.561-1.507.16-.177.072-.195-.196-.041-.59.339-2.167-.678-1.756-1.132.16-.176.071-.194-.197-.04-.528.303-2.171-.645-1.854-1.069.106-.142.079-.174-.06-.07-.422.313-3.249-1.457-2.991-1.874.132-.213.054-.274-.172-.133-.757.467-10.104-7.246-9.657-7.968.096-.155-.132-.521-.506-.814-.622-.488-.635-.467-.147.249.292.43-.099.098-.869-.737s-1.29-1.697-1.155-1.916.054-.279-.186-.131c-.503.312-1.358-1.067-.945-1.524.154-.17.06-.183-.209-.028-.462.266-.683-.233-.502-1.133.043-.214-.052-.259-.212-.1-.415.415-1.438-1.178-1.104-1.718.155-.25.108-.346-.104-.214-.486.3-2.186-3.147-1.834-3.717.158-.255.082-.314-.188-.147-.418.259-.604-.282-.556-1.619.009-.266-.139-.388-.329-.27-.318.197-.496-.467-.452-1.683.009-.266-.167-.371-.391-.232-.257.159-.327-.059-.188-.591.122-.463.083-.757-.086-.653-.395.244-.87-2.091-.535-2.633.159-.256.063-.293-.254-.097-.382.236-.459.061-.312-.709.12-.626.044-.929-.195-.781s-.315-.155-.195-.781.044-.929-.196-.782-.315-.155-.195-.781.044-.929-.195-.781-.315-.159-.193-.793c.109-.569.026-1.035-.184-1.035s-.299-.434-.198-.964.045-.879-.125-.774c-.419.259-.905-3.162-.534-3.763.2-.323.133-.378-.204-.17-.38.235-.461-.024-.338-1.084.093-.795.008-1.297-.198-1.17s-.285-.299-.185-.983c.103-.7.023-1.111-.192-.979s-.301-.351-.206-1.165c.092-.785.007-1.296-.195-1.172s-.287-.386-.195-1.172c.092-.794.007-1.297-.199-1.169s-.285-.3-.185-.984c.103-.7.023-1.111-.191-.978s-.302-.351-.207-1.165c.092-.786.007-1.297-.195-1.172s-.287-.387-.195-1.172.006-1.297-.196-1.172-.287-.387-.195-1.172c.095-.813.009-1.298-.206-1.165-.222.137-.277-.449-.14-1.472.159-1.184.11-1.528-.159-1.134-.277.405-.351.103-.259-1.062.073-.924-.028-1.531-.232-1.405-.21.13-.265-.482-.131-1.477.158-1.179.11-1.527-.158-1.134-.272.4-.35.035-.266-1.253.066-1.012-.037-1.722-.233-1.6s-.259-.482-.135-1.405c.142-1.056.078-1.536-.182-1.375s-.345-.323-.248-1.335c.085-.895-.005-1.485-.207-1.36-.208.129-.27-.561-.147-1.648.116-1.028.074-1.647-.094-1.377-.396.642-.939-4.718-.599-5.921.208-.736.172-.799-.187-.325-.345.455-.407.13-.279-1.452.104-1.286.022-1.949-.223-1.798s-.315-.506-.191-1.804c.128-1.325.069-1.86-.168-1.522s-.307-.185-.2-1.516c.105-1.286.023-1.95-.222-1.798s-.316-.506-.191-1.805c.108-1.123.067-1.834-.09-1.579-.39.63-.894-5.035-.576-6.475.199-.905.159-1.025-.188-.563-.34.453-.414.084-.324-1.624.064-1.215-.039-2.114-.228-1.996s-.267-.856-.17-2.189c.104-1.443.036-2.205-.17-1.91s-.285-.477-.195-1.953c.081-1.344.028-2.251-.118-2.015-.369.598-.88-7.166-.573-8.723.196-.994.154-1.143-.192-.684-.336.446-.402-.158-.274-2.539.104-1.946.041-2.83-.169-2.344s-.288-.527-.206-2.712c.071-1.922-.004-3.152-.167-2.735-.217.556-.307.34-.333-.803-.02-.859-.303-5.781-.63-10.937-1.065-16.843-1.216-58.068-.209-57.446.147.091.217-1.537.154-3.616-.07-2.316.014-3.48.217-3.003s.267-.523.168-2.539c-.105-2.143-.032-3.131.205-2.789s.307-.481.194-2.344c-.114-1.872-.046-2.688.195-2.343s.309-.471.195-2.344c-.102-1.684-.034-2.675.165-2.393s.293-.585.224-2.149c-.078-1.778-.003-2.375.233-1.847.228.513.285-.089.164-1.758-.115-1.592-.05-2.35.174-2.034s.289-.315.173-1.716c-.103-1.24-.032-2.126.161-2.006s.294-.692.229-1.8c-.076-1.301.009-1.83.239-1.493s.295-.236.187-1.562c-.115-1.409-.047-1.909.207-1.543s.308-.068.166-1.328c-.138-1.223-.072-1.784.189-1.622s.337-.402.223-1.602c-.13-1.362-.069-1.694.233-1.262s.348.204.174-.879c-.13-.806-.076-1.465.119-1.465s.295-.747.223-1.66c-.093-1.186-.02-1.499.256-1.095.269.394.318.05.159-1.134-.137-1.023-.081-1.609.14-1.472.214.132.311-.375.23-1.21-.104-1.08-.038-1.292.266-.851.295.427.338.173.159-.94-.153-.952-.102-1.437.136-1.29.227.141.313-.229.212-.916-.093-.633-.004-1.151.198-1.151s.287-.552.188-1.227c-.106-.722-.027-1.133.192-.998s.299-.268.195-.976c-.117-.798-.035-1.119.243-.947.284.175.354-.219.215-1.214-.163-1.179-.112-1.357.256-.888.394.502.428.487.236-.107-.797-2.473.946-5.281 2.109-3.398M252.148 50c1.709 1.719 3.195 3.125 3.302 3.125s-1.202-1.406-2.911-3.125-3.194-3.125-3.302-3.125 1.203 1.406 2.911 3.125M150.331 60.907c-.082 2.384-.026 4.025.124 3.647s.271 2.214.271 5.759c0 3.808-.133 6.125-.326 5.664-.196-.47-.238.138-.107 1.525.154 1.622.092 2.228-.209 2.042-.294-.182-.358.166-.205 1.111.13.8.061 1.376-.164 1.376-.214 0-.299.466-.19 1.035.15.785.074.958-.316.717-.372-.23-.444-.137-.263.337.305.793-.098 3.048-.5 2.8-.157-.098-.198.283-.091.845.126.656.049.932-.215.769s-.33.054-.19.589.071.751-.196.586-.336.046-.195.586.071.75-.195.586-.337.046-.196.586c.139.531.07.749-.187.59-.225-.138-.401-.034-.391.232.045 1.254-.14 1.877-.492 1.659-.229-.142-.281.034-.129.432.189.491.119.584-.26.35-.343-.212-.424-.169-.239.13.372.602-2.477 5.982-2.998 5.66-.223-.137-.289-.063-.148.167.6.97-10.002 13.18-11.444 13.18-.191 0-.493.16-.672.356-.191.209-.084.237.261.069.322-.157.069.156-.563.696s-1.319.877-1.526.749-.256-.039-.109.199c.282.457-1.24 1.498-1.904 1.302-.215-.064-.262.013-.105.17.389.389-3.614 3.336-4.112 3.028-.219-.135-.277-.052-.129.187.311.504-1.067 1.358-1.524.945-.171-.153-.183-.059-.029.209.257.446-.205.674-1.063.525-.178-.031-.217.116-.087.325.289.468-1.126 1.282-1.556.894-.17-.153-.188-.068-.04.19.282.493-1.21 1.544-1.902 1.339-.215-.063-.26.016-.1.175.321.321-1.27 1.589-1.784 1.422-.177-.057-.219.063-.093.267.219.354-2.11 2.288-2.515 2.088-.107-.052-.202.036-.211.197-.02.372-8.867 9.206-9.262 9.247-.161.017-.31.206-.331.421-.081.817-.798 1.77-1.163 1.545-.209-.13-.348-.091-.309.086.143.642-.534 1.679-.935 1.432-.225-.14-.305-.084-.176.124.307.498-1.061 2.571-1.444 2.187-.163-.162-.261-.12-.218.095.176.872-.039 1.397-.464 1.135-.265-.164-.346-.109-.196.133.333.54-1.467 3.706-1.889 3.323-.178-.162-.21-.095-.071.149.318.557-.485 2.944-.903 2.686-.17-.105-.301.027-.291.293.044 1.224-.135 1.879-.46 1.678-.195-.12-.255.161-.134.624.135.517.068.749-.175.599s-.321.144-.2.778c.115.602.041.927-.181.79s-.305.257-.2.974c.098.664.022 1.111-.168.994s-.345 1.827-.345 4.4c0 2.538.143 4.41.318 4.162.179-.256.257.173.179.985s.017 1.341.223 1.214.284.3.184.983c-.105.717-.024 1.113.199.974s.297.188.182.79c-.122.634-.045.93.2.779s.31.081.175.598c-.141.54-.071.751.195.586s.337.046.196.586-.071.75.195.586.337.046.195.586-.071.75.196.586.336.045.195.586-.072.751.2.583.323-.007.138.475c-.155.405-.156.61-.003.457.284-.284 1.793 2.63 1.827 3.526.01.268.105.401.211.295.357-.357 1.288 1.361 1.005 1.854-.155.268-.138.358.037.199.348-.315 2.804 2.801 2.63 3.336-.059.182.053.231.249.11.373-.23 2.589 2.414 2.591 3.092.001.215.192.391.426.391s1.463.956 2.734 2.124 2.063 1.976 1.761 1.795c-.374-.225-.459-.184-.266.129.156.251.413.377.572.278s.806.264 1.438.804.885.852.563.695-.469-.156-.326.004.319.234.391.164c.274-.268 3.805 2.538 3.604 2.863-.116.189-.067.318.11.287.833-.145 1.319.078 1.066.488-.153.249-.108.346.101.216.513-.317 3.73 1.847 3.357 2.258-.162.179-.109.219.12.089.548-.311 2.607 1.051 2.225 1.472-.163.18-.077.2.191.046.575-.331 2.181.677 1.756 1.102-.16.159-.115.255.1.211.872-.176 1.398.039 1.135.465-.173.279-.107.345.171.173.541-.335 2.134.689 1.719 1.104-.16.16-.115.241.1.18.727-.204 2.163.487 1.899.915-.156.252-.079.31.189.144.555-.343 2.121.691 1.718 1.135-.159.176-.071.194.197.04.59-.34 2.168.678 1.756 1.131-.159.177-.078.2.18.051.591-.339 4.147 1.832 3.737 2.282-.165.183-.081.205.187.051.492-.283 2.21.647 1.853 1.004-.106.106.071.193.393.193.879 0 5.65 3.354 5.384 3.784-.127.205-.044.258.184.117s1.354.472 2.502 1.363c2.313 1.796 3.193 2.588 2.319 2.09-.379-.216-.457-.166-.253.164.162.262.389.382.504.267.334-.333 2.442 1.323 2.342 1.84-.05.256.106.43.347.385.959-.177 10.481 10.221 10.03 10.952-.13.21-.043.263.194.116.504-.311 1.358 1.067.946 1.525-.154.17-.069.188.189.04.476-.273 1.418 1 1.08 1.459-.1.136-.063.158.081.05.393-.296 2.467 3.008 2.193 3.491-.13.23-.093.286.084.127.453-.412 1.471 1.166 1.131 1.756-.154.268-.135.356.042.196.429-.39 1.846 1.978 1.509 2.523-.17.277-.081.315.253.108.379-.234.449-.14.26.351-.141.368-.114.582.061.474.441-.273 2.092 3.233 1.769 3.757-.17.274-.079.312.254.106.379-.234.448-.141.26.35-.173.452-.109.579.195.391s.369-.061.196.391c-.142.368-.101.573.091.455.438-.271 1.284 2.075.945 2.623-.14.226-.064.29.172.145.512-.316 1.034 1.121.639 1.76-.168.272-.111.35.142.193.512-.316 1.034 1.121.639 1.76-.187.302-.109.349.232.138.382-.236.456-.102.292.526-.121.464-.08.756.092.65.415-.257.885 1.669.543 2.223-.174.281-.087.322.245.116.381-.236.456-.101.292.527-.141.54-.071.75.195.586s.337.045.195.585-.071.751.196.586.336.046.195.586-.071.751.195.586.337.046.196.586c-.14.535-.07.75.19.589s.341.113.215.769c-.121.634-.045.93.201.778s.31.082.175.599c-.14.534-.07.75.19.589s.341.112.216.768c-.12.626-.044.929.195.782s.315.155.195.781c-.107.562-.076.949.07.859.399-.247 1.293 3.602.961 4.139-.193.313-.121.363.22.152.382-.236.459-.061.312.708-.107.561-.035 1.074.16 1.139s.39.757.432 1.537.233 1.322.426 1.204.261.246.154.809c-.12.626-.044.929.195.781s.315.155.195.781-.044.929.196.782.315.155.195.781c-.121.633-.045.93.2.778s.31.082.175.598c-.139.535-.07.75.191.589s.341.113.215.769c-.121.634-.045.93.2.778s.311.082.176.599c-.142.54-.071.75.195.586s.337.045.195.586-.071.75.196.586.336.045.195.585-.071.751.195.586.337.046.196.586c-.122.464-.093.764.062.668.418-.258 1.303 2.436.976 2.967-.165.266-.111.348.132.198.487-.301 1.38 1.984 1.01 2.583-.157.254-.057.287.267.086.387-.239.446-.135.235.416-.156.405-.161.614-.012.466.396-.397 1.794 2.397 1.477 2.95-.148.258-.131.345.037.193.422-.381 2.239 2.376 1.914 2.902-.157.254-.081.312.189.146.409-.253.632.233.487 1.066-.031.177.115.216.325.086.365-.225 1.082.728 1.162 1.545.022.215.189.39.373.39s.814.572 1.402 1.27.929 1.27.76 1.27c-.377 0 .557.974.942.981.658.013 2.758 1.918 2.539 2.303-.134.235-.104.301.066.147.388-.35 1.86.403 1.602.82-.104.168.023.319.282.336.774.049 7.293 3.5 7.057 3.736-.12.119.179.114.663-.013.57-.149.791-.084.624.185s.046.337.586.196.751-.071.586.195.046.336.586.195c.628-.164.762-.089.526.292-.198.322-.163.418.095.259.622-.385 2.861.165 2.572.632-.139.225-.06.286.178.139.507-.313 3.654.131 3.435.485-.083.134.491.258 1.277.274 2.568.053 7.152.668 6.764.908-.209.129 3.718.234 8.726.234s8.902-.143 8.654-.318.649-.252 1.994-.17 2.241.022 1.992-.131.878-.404 2.504-.557 3.173-.142 3.439.022c.33.204.383.137.167-.212-.247-.401.034-.464 1.307-.293 1.056.142 1.536.078 1.376-.182s.322-.345 1.334-.248c.902.086 1.485-.004 1.359-.209-.13-.21.454-.269 1.4-.142 1.056.141 1.536.078 1.375-.182s.323-.345 1.335-.249c.869.083 1.485-.003 1.368-.192s.585-.28 1.558-.203c.983.078 1.674-.015 1.554-.209s.592-.259 1.653-.14c1.142.129 1.658.078 1.328-.132-.368-.233-.082-.344.892-.348.788-.004 1.688-.104 1.999-.224.502-.192.709.113 1.209 1.78.032.108.171.373.31.589.355.555-39.415 40.538-39.977 40.191-.268-.165-.34-.103-.18.156.265.429-1.22 1.502-1.835 1.325-.177-.051-.216.079-.087.288.253.408-1.081 1.295-1.493.992-.135-.1-.161-.067-.056.074.317.426-2.872 2.557-3.368 2.251-.276-.171-.355-.115-.197.139.264.428-1.172 1.12-1.899.915-.215-.061-.258.022-.096.184.414.415-2.737 2.22-3.285 1.882-.263-.163-.345-.108-.197.132.304.492-.811.992-1.4.628-.23-.143-.303-.074-.163.153.305.492-.81.992-1.4.628-.235-.145-.302-.073-.154.166.316.512-1.121 1.034-1.76.639-.302-.187-.349-.109-.138.232.236.382.102.456-.526.292-.464-.121-.758-.083-.653.086.244.395-2.091.87-2.633.535-.257-.158-.293-.063-.097.254.236.382.06.459-.709.312-.619-.118-.929-.043-.784.191s-.231.318-.968.21c-.722-.106-1.112-.025-.972.202.146.236-.409.293-1.465.151-.935-.125-1.478-.091-1.207.077.543.336-4.143.816-7.917.81-3.195-.004-6.507-.423-6.278-.794.102-.165-.545-.202-1.437-.082-1.273.17-1.555.107-1.307-.293.202-.328.162-.416-.112-.247-.543.336-3.646-.143-3.409-.526.097-.157-.284-.197-.846-.09-.657.126-.932.049-.769-.215s-.055-.33-.589-.19c-.54.141-.751.071-.586-.196s-.046-.336-.586-.195-.751.071-.586-.195-.046-.337-.586-.196c-.628.164-.762.09-.526-.292.211-.341.164-.418-.138-.231-.639.394-2.076-.128-1.76-.64.157-.253.079-.31-.193-.142-.639.395-2.076-.127-1.76-.639.15-.243.08-.311-.165-.159-.522.322-4.809-1.722-4.536-2.163.107-.173-.107-.199-.476-.058-.49.189-.584.119-.35-.26.212-.344.169-.424-.131-.239-.494.306-2.126-.657-1.816-1.071.106-.142.083-.177-.052-.079-.417.307-2.529-.971-2.278-1.378.13-.211.092-.358-.085-.327-.858.149-1.32-.079-1.064-.525.155-.269.142-.363-.028-.209-.457.413-1.835-.442-1.524-.945.148-.24.09-.322-.131-.186s-1.081-.385-1.916-1.155-1.167-1.162-.737-.869c.716.487.737.475.249-.147-.293-.374-.669-.596-.836-.493-.439.272-28.552-28.538-28.213-28.912.156-.173.097-.209-.131-.079-.443.251-12.866-12.466-12.866-13.17 0-.23-.264-.425-.586-.435s-.538-.243-.478-.517-.042-.408-.223-.296c-.474.293-8.37-7.735-8.003-8.138.168-.185.109-.224-.132-.086-.246.14-1.938-1.333-3.855-3.356l-12.258-12.563c-4.862-4.927-8.488-8.715-8.059-8.417.68.47.715.467.274-.026-.28-.312-.663-.568-.852-.568-.519 0-21.704-21.762-21.58-22.167.059-.193-.046-.257-.234-.141s-1.989-1.496-4.002-3.584l-11.875-12.207c-17.168-17.58-18.619-19.117-18.394-19.481.127-.205.025-.501-.227-.656-.309-.191-.355-.105-.144.266.427.748-.224.066-1.292-1.353-.463-.616-.744-1.279-.624-1.474s-.013-.306-.298-.247-.493-.197-.464-.572-.09-.591-.265-.483c-.443.274-3.575-6.085-3.322-6.744.126-.33.034-.428-.243-.256-.305.188-.377.007-.228-.567.142-.54.072-.75-.195-.586s-.336-.045-.195-.585.07-.75-.191-.589-.34-.113-.215-.769c.12-.626.044-.929-.195-.782s-.315-.155-.196-.781c.118-.613.043-.928-.187-.786s-.32-.307-.221-1.156c.095-.808.009-1.298-.203-1.167-.22.136-.282-.524-.156-1.642.129-1.142.077-1.659-.132-1.328-.207.326-.343-1.476-.343-4.538 0-3.226.131-4.871.358-4.512.232.366.277-.035.13-1.134-.181-1.349-.121-1.634.289-1.381.382.237.446.137.246-.383-.321-.838.098-3.402.514-3.145.161.099.214-.226.119-.723s.062-1.15.349-1.453.54-.77.561-1.038c.123-1.529.19-1.686.608-1.428.28.173.345.107.171-.173-.321-.519 2.428-6.402 2.865-6.131.159.098.289-.052.289-.334 0-.846 3.325-5.316 3.757-5.049.22.136.29.069.155-.149-.312-.505 2.437-3.581 11.274-12.615l12.468-12.782c2.969-3.055 5.53-5.474 5.69-5.375s.508-.082.774-.402.338-.582.16-.582.357-.695 1.188-1.546 1.701-1.437 1.935-1.305.291.095.128-.084c-.369-.406 1.258-2.198 1.73-1.906.189.116.295-.021.236-.305s.126-.469.41-.41.424-.044.31-.229c-.23-.372 2.998-3.697 3.527-3.631.183.023.333-.131.333-.342 0-.639 10.482-10.91 10.882-10.663.204.126.267.059.138-.149-.25-.405 16.84-17.702 17.496-17.708.215-.001.399-.223.408-.491s.274-.43.586-.358.438 0 .279-.16c-.381-.38.468-1.394.929-1.109.196.121.308.047.249-.165-.126-.454 29.434-29.992 29.87-29.849.163.054.252-.043.198-.214-.177-.568 16.642-16.894 17.017-16.519.197.196.291 2.307.209 4.691m118.028 5.695c1.167 1.181 2.21 2.148 2.317 2.148s-.759-.967-1.926-2.148-2.21-2.149-2.317-2.149.759.967 1.926 2.149m15.039 15.429c1.276 1.289 2.408 2.344 2.515 2.344s-.848-1.055-2.124-2.344-2.407-2.343-2.515-2.343.849 1.054 2.124 2.343m17.188 17.578c1.925 1.934 3.587 3.516 3.695 3.516s-1.38-1.582-3.304-3.516-3.588-3.515-3.695-3.515 1.379 1.582 3.304 3.515m-79.792 5.079c0 .751.08 1.059.178.683s.099-.991 0-1.367-.178-.068-.178.684m-125.495 5.761l-2.135 2.246 2.246-2.135c2.087-1.983 2.425-2.357 2.135-2.357-.061 0-1.072 1.011-2.246 2.246m222.084 6.348c2.14 2.148 3.979 3.906 4.087 3.906s-1.556-1.758-3.697-3.906-3.979-3.906-4.086-3.906 1.555 1.757 3.696 3.906m-228.921.488l-1.939 2.051 2.051-1.939c1.906-1.801 2.23-2.163 1.939-2.163-.062 0-.985.923-2.051 2.051m245.718 16.699c1.708 1.719 3.194 3.125 3.302 3.125s-1.203-1.406-2.912-3.125-3.194-3.125-3.302-3.125 1.203 1.407 2.912 3.125M84.548 155.957c-.587.698-1.245 1.27-1.462 1.27s-.434.267-.482.595c-.123.839-2.372 4.311-2.627 4.056-.116-.116-.201.02-.189.303.059 1.348-.129 1.91-.551 1.649-.273-.169-.346-.108-.184.154.342.554-.128 2.48-.543 2.224-.172-.107-.213.186-.092.649.135.517.068.749-.175.599s-.321.144-.2.778c.125.656.048.932-.216.769s-.33.054-.19.589.071.75-.195.586-.337.046-.196.586c.165.628.09.762-.292.526-.303-.188-.417-.163-.279.06.306.495-.51 3.692-.883 3.461-.159-.098-.201.282-.093.845s.036.924-.161.802-.301.492-.229 1.407c.071.902-.013 1.427-.188 1.178s-.316.923-.316 2.6.106 2.877.236 2.667c.329-.533.814 3.919.489 4.486-.146.254-.113.324.073.155.4-.365 1.415 2.816 1.074 3.367-.14.227-.028.253.277.064.385-.238.455-.097.282.564-.126.485-.137.788-.024.675.316-.315 2.847 4.922 2.585 5.347-.127.204-.04.254.193.11.404-.25 1.121 1.15.937 1.83-.048.177.074.222.271.101.391-.242 1.745 1.604 1.745 2.38 0 .265.137.398.306.294.291-.18 1.33 1.376 1.192 1.786-.036.107.084.195.268.195s.814.571 1.402 1.27.934 1.269.77 1.269.109.434.608.965 1.012.9 1.142.822 1.203.746 2.385 1.831 1.797 1.733 1.367 1.442c-.679-.46-.715-.455-.274.037.28.312.631.573.782.581.702.036 2.027 1.043 1.817 1.383-.129.209-.09.348.087.309.6-.134 1.686.522 1.463.884-.122.198-.077.327.1.288.6-.134 1.686.522 1.462.884-.122.197-.077.327.1.287.6-.133 1.686.523 1.463.885-.122.197-.077.327.1.287.662-.147 1.675.542 1.429.972-.141.247-.117.322.053.169.4-.361 1.856.409 1.589.84-.111.18.104.303.478.274s.631.177.572.463.04.426.221.315c.464-.287 3.665 1.9 3.306 2.258-.162.163-.119.26.096.217.872-.176 1.397.039 1.134.464-.172.28-.107.345.172.173.555-.343 2.121.69 1.718 1.134-.159.177-.081.201.175.054.554-.317 2.976 1.062 2.573 1.466-.154.153.051.152.456-.003.519-.199.651-.145.447.184-.158.257-.143.428.034.38.582-.158 2.095.508 1.894.833-.108.175.109.294.483.265s.635.166.582.434.034.454.195.411c.614-.162 2.051.542 1.832.897-.127.205-.085.347.092.316.798-.139 1.323.071 1.097.437-.136.22-.102.375.075.344.798-.138 1.323.071 1.097.437-.136.22-.102.375.075.345.739-.129 1.331.058 1.143.362-.11.179.016.325.282.325.827 0 2.614 1.366 2.349 1.796-.139.224-.076.299.14.166.512-.317 2.931 1.466 2.555 1.882-.158.175-.107.216.114.09s.836.126 1.367.558.719.654.417.495c-.365-.193-.454-.137-.266.168.155.251.411.378.567.281.428-.264 1.419.454 1.419 1.028 0 .276.176.509.391.516.78.028 2.138.998 2.047 1.463-.052.262.124.433.391.38.629-.125 6.775 5.996 6.645 6.619-.054.26.105.481.354.491.639.025 2.119 1.997 1.781 2.372-.154.17-.079.195.167.054.43-.246 1.119.767.972 1.429-.039.177.1.216.309.087.468-.289 1.282 1.126.894 1.556-.153.17-.078.194.167.054.461-.263 1.833 1.493 1.833 2.347 0 .265.134.4.297.299.3-.185.965 1.335.822 1.878-.043.161.142.249.411.196s.464.208.435.581c-.031.387.124.57.359.425.267-.165.313.004.13.48-.155.405-.156.61-.002.456.394-.394 1.789 2.016 1.467 2.536-.149.241-.085.317.146.174.499-.308 1.789 2.739 1.415 3.344-.157.254-.081.313.189.146.418-.258.604.283.556 1.619-.009.266.139.388.329.27.318-.196.496.467.453 1.683-.01.266.166.371.39.232.257-.159.327.059.188.591-.121.463-.089.761.073.661.386-.239 1.232 2.541.924 3.04-.144.233-.036.26.273.069.382-.236.456-.101.292.527-.141.54-.071.75.196.586s.336.045.195.585-.071.751.195.586.337.046.196.586c-.122.464-.091.763.068.665.414-.256 1.688 4.002 1.357 4.538-.183.295-.103.34.236.131.381-.236.456-.102.292.526-.142.54-.071.75.195.586s.337.045.195.586-.071.75.196.586c.259-.161.341.026.218.499-.109.416.054.992.362 1.279s.474.854.368 1.258-.014.735.204.735.291.273.163.606c-.151.393-.075.509.215.33.305-.188.377-.007.227.566-.141.54-.071.751.196.586s.336.046.195.586-.071.75.195.586.337.046.196.586-.071.75.195.586.337.045.195.586-.071.75.196.586.336.045.195.585-.071.751.195.586.337.046.196.586c-.121.463-.042.842.175.842s.291.273.163.606c-.15.393-.075.509.216.33.304-.188.377-.007.227.566-.141.54-.071.751.195.586s.337.046.195.586-.071.751.196.586.336.046.195.586c-.121.463-.061.744.134.624.324-.201.504.454.46 1.678-.01.267.138.388.329.27.321-.199.5.487.447 1.714-.013.283.08.411.205.286.343-.343 1.292 2.146.999 2.62-.16.259-.062.293.264.091.379-.234.448-.14.26.351-.173.451-.11.579.195.39s.369-.061.196.391-.11.579.195.391.369-.061.195.39c-.141.369-.104.576.084.46.378-.234 1.471 2.092 1.273 2.709-.069.215.005.26.165.1.415-.415 1.438 1.178 1.104 1.719-.162.262-.108.345.13.198.43-.266 1.796 1.521 1.796 2.348 0 .266.137.398.306.294.291-.18 1.33 1.377 1.192 1.786-.036.108.094.196.289.196.448 0 2.028 1.979 1.778 2.228-.101.102.212.521.697.932l.881.746-.77-.977c-.424-.537.06-.193 1.074.765 1.899 1.793 2.526 2.668.965 1.347l-.878-.744.73.863c.401.475.841.831.976.792.484-.14 2.384 1.366 2.167 1.717-.121.197-.076.326.101.286.642-.143 1.679.535 1.432.935-.14.226-.083.305.126.176.512-.317 3.729 1.846 3.356 2.257-.162.179-.092.21.155.068.548-.313 3.768 1.448 3.372 1.845-.155.155.049.154.454-.001.475-.182.645-.136.48.131-.14.227-.037.405.229.395 1.216-.044 1.88.135 1.683.452-.118.191.004.339.27.329 1.224-.044 1.879.136 1.679.46-.121.195.16.255.624.134.531-.139.749-.07.59.188-.138.224-.034.4.232.39 1.388-.05 2.264.145 2.069.46-.12.195.161.255.624.134.499-.13.747-.065.607.161s.245.311.971.204c.708-.103 1.112-.023.977.196s.269.299.976.195c.716-.105 1.112-.024.975.199-.142.23.635.325 1.995.246 1.225-.072 1.928.002 1.561.164s1.077.295 3.209.295 3.573-.131 3.205-.292.514-.241 1.959-.178c1.578.07 2.437-.021 2.149-.226s.211-.263 1.257-.143c1.223.141 1.57.085 1.172-.189-.41-.282-.171-.351.872-.25.79.076 1.361.015 1.268-.136-.243-.392 2.837-.855 3.395-.51.312.193.362.12.152-.22-.236-.382-.061-.46.709-.312.633.121.93.045.778-.201s.082-.31.598-.175c.54.141.751.071.586-.195s.046-.337.586-.196c.464.122.756.08.65-.092-.19-.307 1.642-.985 2.272-.841.177.041.21-.106.074-.326s-.066-.4.154-.4.318-.22.215-.489c-.107-.281-.887-.493-1.843-.5-5.647-.04-9.382-.288-8.492-.564.549-.17-.647-.236-2.735-.15-2.418.1-3.439.029-2.93-.202.524-.237-.057-.294-1.757-.171-1.958.141-2.405.081-1.953-.263.475-.363.416-.399-.316-.192-1.098.309-4.836-.159-4.58-.575.102-.163-.276-.209-.838-.102-.626.12-.929.044-.782-.195s-.155-.315-.781-.195c-.656.125-.932.048-.769-.216.158-.256-.04-.333-.528-.206-.43.112-.781.025-.781-.195s-.38-.301-.843-.179c-.531.138-.749.069-.59-.188.139-.225.034-.4-.232-.391-1.336.048-1.877-.138-1.619-.556.174-.282.108-.345-.178-.169-.496.306-4.801-1.703-4.543-2.121.087-.14-.089-.254-.39-.254-.828 0-3.297-1.811-3.039-2.229.124-.201.049-.257-.167-.123s-.727-.028-1.135-.359-.494-.474-.192-.318c.363.189.453.131.266-.173-.156-.251-.455-.351-.664-.221-.462.285-5.509-4.848-5.223-5.311.111-.18-.004-.454-.255-.61-.305-.188-.361-.099-.168.266.159.302-.064.115-.495-.417s-.684-1.129-.56-1.329.059-.262-.144-.136c-.428.264-3.007-3.351-3.007-4.215 0-.319-.087-.493-.193-.387-.337.337-1.659-2.173-1.382-2.621.17-.276.081-.314-.254-.108-.378.234-.448.14-.26-.35.174-.452.11-.58-.195-.391s-.369.061-.195-.391.109-.579-.196-.39-.368.061-.195-.391.11-.579-.195-.391-.369.062-.196-.39c.142-.369.101-.574-.09-.455-.439.271-1.284-2.076-.946-2.624.14-.226.064-.29-.171-.145-.512.317-1.034-1.121-.64-1.76.175-.282.111-.349-.17-.175-.419.258-.605-.283-.556-1.619.009-.266-.167-.371-.391-.232-.257.159-.327-.059-.188-.591.142-.54.071-.75-.195-.586s-.337-.045-.195-.585.071-.751-.196-.586-.336-.046-.195-.586.071-.751-.195-.586-.337-.046-.196-.586c.14-.535.071-.75-.19-.589s-.341-.113-.215-.769c.121-.634.045-.93-.2-.778s-.311-.082-.176-.599c.141-.54.071-.75-.195-.586s-.337-.045-.196-.585c.122-.463.041-.842-.179-.842s-.307-.352-.195-.782c.127-.487.05-.686-.206-.528-.264.163-.341-.113-.216-.769.12-.626.044-.929-.195-.781s-.315-.155-.195-.781.043-.929-.196-.782-.315-.155-.195-.781.044-.929-.195-.781-.315-.155-.196-.781.044-.929-.195-.782-.315-.155-.195-.781.044-.929-.196-.781-.315-.155-.195-.781c.108-.563.06-.939-.107-.836-.416.257-.882-2.035-.53-2.605.167-.27.117-.357-.118-.212-.467.289-1.017-1.95-.632-2.572.159-.258.063-.293-.259-.094-.382.236-.456.101-.292-.527.141-.54.071-.75-.195-.586s-.337-.045-.196-.585c.121-.463.042-.842-.175-.842s-.291-.273-.163-.606c.15-.393.075-.509-.216-.33-.304.188-.377.007-.227-.566.141-.54.071-.751-.195-.586s-.337-.046-.195-.586c.121-.464.093-.764-.063-.668-.425.263-1.299-2.437-.973-3.004.155-.269.134-.355-.047-.191-.417.379-1.443-1.995-1.101-2.548.16-.259.063-.293-.264-.091-.387.239-.446.135-.235-.416.156-.405.158-.611.005-.458-.358.358-2.899-4.852-2.602-5.333.13-.21.007-.228-.293-.043-.378.234-.448.14-.26-.351.142-.369.097-.571-.1-.449-.378.234-1.038-1.272-.85-1.938.06-.215-.021-.26-.181-.1-.415.415-1.438-1.178-1.104-1.719.169-.273.107-.345-.156-.182-.457.283-1.887-1.995-1.687-2.687.062-.215-.013-.265-.167-.111-.338.339-1.765-1.397-1.924-2.34-.062-.371-.305-.632-.538-.58-.393.087-1.379-1.276-1.411-1.949-.008-.161-.19-.298-.405-.304-.464-.014-4.874-4.312-4.763-4.643.042-.126-.012-.23-.119-.231-.539-.004-2.708-1.858-2.63-2.248.05-.247-.085-.463-.3-.481-.819-.066-2.16-1.036-1.935-1.4.129-.209.09-.339-.087-.288-.615.177-2.1-.896-1.835-1.325.147-.237.105-.331-.094-.209-.474.293-3.345-1.855-2.975-2.225.157-.157.11-.25-.105-.207-.776.157-1.409-.02-1.212-.339.11-.179-.011-.332-.27-.34-.747-.022-5.721-3.525-5.425-3.821.146-.146.09-.231-.125-.187-.899.181-1.398-.04-1.132-.502.155-.269.139-.36-.034-.203-.409.37-3.36-1.281-3.086-1.725.115-.186.064-.313-.113-.282-.859.149-1.32-.079-1.064-.525.155-.268.139-.359-.034-.202-.438.396-3.35-1.298-3.054-1.776.132-.214.078-.288-.121-.166-.485.3-3.352-1.458-2.982-1.828.161-.161.117-.257-.098-.213-.837.169-1.402-.032-1.166-.414.136-.22.102-.375-.075-.345-.832.145-1.319-.078-1.066-.487.173-.279.107-.345-.171-.173-.541.334-2.134-.689-1.719-1.104.16-.16.115-.255-.1-.212-.836.169-1.402-.032-1.166-.414.136-.22.102-.375-.075-.344-.797.139-1.323-.071-1.097-.437.136-.22.103-.375-.075-.344-.797.138-1.323-.071-1.097-.437.136-.22.103-.375-.074-.344-.798.138-1.324-.071-1.098-.437.136-.22.103-.375-.074-.345-.798.139-1.324-.07-1.098-.437.136-.22.103-.375-.074-.344-.859.149-1.321-.079-1.064-.525.155-.268.142-.362-.028-.209-.458.413-1.836-.441-1.525-.945.147-.237.091-.322-.126-.189-.484.3-3.089-1.588-2.941-2.131.059-.216-.033-.305-.206-.199s-.748-.159-1.279-.59-.719-.655-.417-.495c.365.192.454.136.266-.168-.156-.252-.428-.368-.605-.259s-1.451-.898-2.831-2.239-1.795-1.824-.921-1.072l1.589 1.367-1.528-1.644c-.841-.904-1.66-1.562-1.821-1.463-.423.262-2.739-2.778-2.402-3.151.155-.172.081-.197-.165-.057-.456.261-1.121-.788-.949-1.497.052-.215-.032-.265-.185-.111-.404.403-2.6-2.765-2.278-3.285.157-.254.093-.327-.154-.174-.404.249-1.121-1.15-.937-1.83.048-.177-.123-.193-.38-.034-.321.199-.386.079-.209-.382.173-.451.109-.579-.195-.39s-.369.061-.196-.391.11-.579-.195-.391-.369.061-.195-.39c.141-.369.106-.577-.079-.463-.461.285-1.736-3.161-1.381-3.734.19-.308.115-.355-.229-.143-.381.236-.456.102-.292-.526.14-.535.07-.75-.19-.589s-.341-.113-.215-.769c.119-.626.043-.929-.196-.781s-.315-.156-.195-.782c.117-.613.042-.928-.188-.786s-.319-.307-.22-1.156c.089-.766.008-1.298-.181-1.181s-.264-1.473-.162-3.64c.111-2.352.073-3.092-.097-1.9-.201 1.409-.297 1.616-.342.742-.118-2.233.44-7.246.75-6.744.167.271.202-.273.076-1.207-.179-1.339-.119-1.633.283-1.385.354.219.416.164.203-.181-.362-.585.558-4.759.99-4.493.163.101.196-.196.075-.66-.139-.531-.07-.75.188-.591.224.139.4.035.39-.232-.048-1.336.138-1.877.557-1.618.279.172.345.107.172-.173-.387-.625-.421-.608-1.622.819m274.241 3.027c.839.86 1.614 1.563 1.721 1.563s-.491-.703-1.33-1.563-1.614-1.562-1.721-1.562.491.703 1.33 1.562m-313.696 2.051l-1.148 1.27 1.27-1.148c1.183-1.069 1.449-1.391 1.147-1.391-.067 0-.638.571-1.269 1.269m318.573 75.195l-4.877 4.981 4.981-4.877c4.626-4.53 5.157-5.084 4.876-5.084-.056 0-2.298 2.241-4.98 4.98M50.391 248.95c0 .068.571.639 1.269 1.27l1.27 1.147-1.148-1.269c-1.069-1.184-1.391-1.449-1.391-1.148m18.554 19.019c1.709 1.719 3.195 3.125 3.302 3.125s-1.202-1.406-2.911-3.125-3.195-3.125-3.302-3.125 1.203 1.406 2.911 3.125m22.657 23.047c1.492 1.504 2.801 2.734 2.908 2.734s-1.025-1.23-2.518-2.734-2.801-2.735-2.909-2.735 1.026 1.231 2.519 2.735m216.782.879l-1.939 2.05 2.051-1.938c1.906-1.801 2.23-2.163 1.939-2.163-.062 0-.985.923-2.051 2.051m-9.755 9.765l-7.418 7.52 7.519-7.418 7.52-7.52c0-.278-.729.432-7.621 7.418M115.43 315.234c1.492 1.504 2.801 2.735 2.908 2.735s-1.025-1.231-2.518-2.735-2.801-2.734-2.908-2.734 1.025 1.23 2.518 2.734m157.788 11.426l-1.148 1.27 1.27-1.148c.698-.631 1.269-1.202 1.269-1.269 0-.302-.322-.036-1.391 1.147m-137.671 8.994c0 .059 1.362 1.422 3.027 3.028l3.028 2.92-2.92-3.028c-2.712-2.812-3.135-3.205-3.135-2.92m22.461 22.94c1.058 1.074 2.011 1.953 2.119 1.953s-.67-.879-1.729-1.953-2.011-1.953-2.119-1.953.671.879 1.729 1.953" fill="#041b43"/>
  <path d="M264.063 62.232c0 .067.571.638 1.269 1.269l1.27 1.147-1.148-1.269c-1.069-1.183-1.391-1.449-1.391-1.147m14.843 15.234c0 .067.572.638 1.27 1.27l1.269 1.147-1.147-1.27c-1.069-1.183-1.392-1.449-1.392-1.147m16.602 17.065c.839.86 1.613 1.563 1.721 1.563s-.491-.703-1.331-1.563-1.613-1.562-1.721-1.562.492.703 1.331 1.562m33.984 34.766c.839.859 1.614 1.562 1.721 1.562s-.491-.703-1.33-1.562-1.614-1.563-1.721-1.563.491.704 1.33 1.563m-108.698 5.078c0 .752.08 1.06.178.684a3.19 3.19 0 0 0 0-1.368c-.098-.376-.178-.068-.178.684m134.658 21.191l1.856 1.856c.293 0-.017-.351-1.742-1.97l-1.855-1.741 1.741 1.855m-264.325 7.129c.003 1.075.079 1.468.169.874s.087-1.473-.005-1.953-.167.005-.164 1.079m274.107 3.052c0 .067.572.639 1.27 1.27l1.269 1.147-1.147-1.269c-1.069-1.184-1.392-1.45-1.392-1.148M35.921 234.082c1.619 1.725 1.97 2.035 1.97 1.742 0-.063-.835-.898-1.856-1.856l-1.855-1.741 1.741 1.855m320.512 9.375l-2.331 2.441 2.441-2.331 2.441-2.441c0-.289-.385.063-2.551 2.331m-8.587 8.594l-5.073 5.176 5.176-5.073 5.073-5.279c-.057 0-2.386 2.329-5.176 5.176m-13.101 13.086l-1.347 1.465 1.465-1.347c1.364-1.253 1.645-1.583 1.346-1.583-.065 0-.724.659-1.464 1.465m-261.112 7.519c.839.86 1.613 1.563 1.721 1.563s-.491-.703-1.331-1.563-1.613-1.562-1.721-1.562.492.703 1.331 1.562m23.047 23.438l2.514 2.344c.108 0-.848-1.055-2.124-2.344l-2.514-2.344c-.108 0 .848 1.055 2.124 2.344m191.601 15.82l-2.715 2.93c.108 0 1.505-1.319 3.106-2.93l2.715-2.93c-.108 0-1.505 1.319-3.106 2.93m-164.843 11.328l2.317 2.149c.107 0-.76-.967-1.927-2.149l-2.317-2.148c-.107 0 .76.967 1.927 2.148m19.14 19.531c.729.752 1.413 1.368 1.521 1.368s-.401-.616-1.13-1.368-1.413-1.367-1.521-1.367.401.615 1.13 1.367m17.578 17.896c0 .067.572.639 1.27 1.27l1.269 1.147-1.147-1.27c-1.069-1.183-1.392-1.449-1.392-1.147m39.363 17.348c.702.087 1.756.086 2.343-.004s.013-.16-1.276-.158-1.769.076-1.067.162" fill="#5e7089"/>
  <path d="M228.968 29.647c-.288 1.559-.455 2.903-.371 2.987.251.251 1.178-4.351 1.031-5.116-.075-.388-.372.571-.66 2.129m1.501-2.341c0 .292 5.76 6.353 12.8 13.468l27.625 28.171 24.017 24.61 17.991 18.359 27.929 28.516c32.807 33.496 31.99 32.579 36.207 40.625 1.014 1.933 1.849 3.38 1.856 3.214.095-2.338-6.271-11.562-12.464-18.058l-66.251-67.773-23.235-23.829-38.223-39.051c-3.302-3.336-6.51-6.677-7.129-7.424s-1.123-1.12-1.123-.828m-2.522 7.673c-.149.996-.191 1.891-.094 1.989s.3-.638.45-1.634.191-1.892.094-1.989-.3.637-.45 1.634m-1.312 7.253c-.47 2.686-.84 5.313-.824 5.838s.456-1.506.978-4.511.892-5.633.824-5.838-.509 1.825-.978 4.511m-1.455 9.12c-.151 1.21-.19 2.284-.087 2.387s.305-.809.448-2.026.182-2.292.087-2.387-.297.817-.448 2.026m-1.106 8.503c-1.194 10.247-1.8 16.498-1.752 18.075.026.859.195.068.375-1.758l1.348-12.434c.562-5.013.944-9.191.85-9.285s-.464 2.337-.821 5.402m-123.962 45.482c-71.155 71.099-70.65 70.564-74.604 79.038-2.182 4.675-1.775 4.546.611-.195 4.562-9.062 2.402-6.786 79.35-83.64l44.336-44.281.315 5.562c.174 3.059.247 8.374.163 11.812-.117 4.725-.068 5.678.2 3.906.412-2.727.02-20.937-.461-21.421-.178-.18-22.638 21.969-49.91 49.219m121.884-23.501c.002 1.289.075 1.769.162 1.067s.085-1.757-.004-2.344-.16-.012-.158 1.277m-74.065 6.286c-3.499 12.451-11.244 21.97-27.228 33.464-23.411 16.837-32.612 33.125-28.194 49.91 3.917 14.88 12.304 23.512 37.569 38.667 29.728 17.832 41.303 32.856 49.45 64.184.828 3.186 1.564 5.62 1.635 5.408.581-1.746-5.805-20.914-9.458-28.388-8.617-17.629-18.64-27.846-39.674-40.445-23.579-14.123-32.96-22.55-37.151-33.371-8.025-20.72-.676-35.93 27.405-56.72 12.501-9.255 18.507-15.708 22.843-24.542 1.922-3.917 4.276-10.773 3.991-11.627-.064-.193-.599 1.365-1.188 3.46m73.354 1.465c-.155 2.893-.201 5.496-.103 5.786s.307-1.996.465-5.077.204-5.685.103-5.785-.31 2.183-.465 5.076m-.788 14.222c-.393 9.876.04 38.772.749 50.097l1.721 22.138c.082-.392-.127-4.611-.464-9.375-1.469-20.789-1.605-24.78-1.605-47.235l-.055-22.95c-.03 0-.186 3.296-.346 7.325M84.19 155.957c-3.723 4.067-4.798 6.443-8.44 18.652-.417 1.397-.823 3.946-.902 5.664s-.075 2.51.011 1.758c.506-4.44 1.096-6.965 3.043-13.016 2.141-6.655 3.258-8.945 5.994-12.284 1.744-2.129 1.887-1.939.852 1.134-1.175 3.487-1.846 7.309-2.081 11.862l-.203 3.906.543-4.927c.608-5.514 1.709-10.266 3.117-13.451 1.194-2.699 1.172-2.691-1.934.702m-1.178 20.338c.37 5.925 3.288 13.111 7.811 19.239 5.966 8.082 11.365 12.345 32.615 25.752 26.162 16.506 35.736 26.895 42.579 46.203.706 1.992 1.35 3.555 1.431 3.474.802-.801-5.733-14.812-9.602-20.589-7.411-11.064-14.044-16.634-37.463-31.458-26.625-16.853-34.872-26.304-37.158-42.587l-.379-2.696.166 2.662m140.116 2.611c-.008 1.182.401 5.928.908 10.547s.831 6.904.72 5.078c-.354-5.781-1.613-17.865-1.628-15.625m-147.966 7.058c.873 12.082 14.624 28.081 34.033 39.596 8.242 4.89 9.882 5.914 14.047 8.777 13.12 9.017 22.279 18.857 27.858 29.929 2.074 4.115 2.777 5.9 6.16 15.617 1.57 4.512 2.864 8.001 2.876 7.755.076-1.676-7.133-20.9-9.281-24.747-7.9-14.15-19.432-24.852-38.941-36.137-21.17-12.246-33.642-25.985-36.345-40.035-.529-2.75-.554-2.796-.407-.755m303.938-.612c1.37 4.239 2.225 7.93 2.421 10.449.129 1.665.352 3.027.494 3.027.84 0-1.537-11.749-2.758-13.627-.342-.527-.368-.502-.157.151m-356.022 5.157c-.796 2.955-.815 4.184-.025 1.529.441-1.479.719-2.771.618-2.872s-.367.504-.593 1.343m-1.345 6.225c-1.089 7.945.699 18.344 4.348 25.288 3.139 5.973 6.015 9.016 66.505 70.361l53.708 54.615c18.996 19.395 21.214 21.314 29.33 25.38 5.446 2.728 13.877 5.422 16.676 5.327.475-.016-.718-.369-2.652-.784-7.254-1.558-14.156-4.51-20.647-8.83-4.227-2.815-5.759-4.277-24.275-23.169l-45.875-46.68-70.391-72.934c-4.712-6.938-6.891-15.457-6.489-25.368.217-5.35.16-6.114-.238-3.206m203.354 2.68c-.011.859.207 3.145.483 5.078s.511 2.901.519 2.149-.209-3.037-.483-5.078-.509-3.008-.519-2.149m156.675 4.688c.002 1.289.075 1.769.162 1.067s.085-1.757-.004-2.344-.161-.012-.158 1.277m-.67 4.296c-.823 5.208-3.663 11.646-7.58 17.181-1.539 2.176-10.043 11.004-27.848 28.913l-42.831 43.159-17.198 17.378-1.873-.501c-1.031-.275-5.314-2.218-9.517-4.316-24.694-12.328-32.883-20.735-37.718-38.718-.723-2.691-1.327-4.629-1.342-4.306-.158 3.402 4.48 15.437 7.886 20.459 5.942 8.763 28.833 24.101 40.711 27.277l1.81.485 21.158-21.279c69.837-70.238 65.494-65.742 69.209-71.659 2.994-4.769 6.057-13.215 5.581-15.389-.076-.35-.278.242-.448 1.316m-154.834.977c-.01.752.119 2.246.287 3.32.246 1.58.307 1.692.322.586.01-.752-.119-2.246-.287-3.32-.246-1.58-.307-1.692-.322-.586m.93 8.203c.232 3.32 1.619 12.825 1.652 11.328.012-.537-.401-3.965-.918-7.617s-.847-5.322-.734-3.711m1.752 13.086c-.072 1.983 5.013 32.317 5.827 34.766.511 1.536.499 1.461-1.943-12.305l-2.741-16.602c-.855-6.003-1.094-7.228-1.143-5.859m-61.333 40.91c-.016.157.49 2.09 1.123 4.297a318.35 318.35 0 0 1 2.396 9.006c.683 2.746 1.318 4.919 1.409 4.827.216-.215-3.209-13.656-4.166-16.349-.403-1.136-.747-1.938-.762-1.781m13.674 9.177c-.14 2.169 4.786 17.21 7.244 22.118 9.961 19.888 29.294 26.883 62.647 22.666 2.685-.34 4.956-.687 5.045-.772.283-.266-.967-.171-5.513.423-12.111 1.58-21.053 1.52-30.782-.207-20.438-3.629-30.06-13.627-36.75-38.187-1.734-6.366-1.847-6.726-1.891-6.041m-21.113 7.921c0 .322.171.849.379 1.172.336.521.379.521.379 0 0-.323-.171-.85-.379-1.172-.337-.521-.379-.521-.379 0m12.52 1.872c-.277 4.456 8.18 21.626 14.033 28.489 4.173 4.893 16.127 12.624 17.46 11.292.135-.136.023-.247-.25-.247s-1.97-.691-3.773-1.536c-12.164-5.7-20.143-16.148-25.973-34.011-.806-2.47-1.48-4.265-1.497-3.987m-11.587.735c.804 2.618 2.516 7.293 2.541 6.939.039-.541-2.23-7.254-2.554-7.556-.136-.128-.13.15.013.617m2.808 8.33c4.727 19.124 23.068 37.352 39.461 39.217 1.808.206 1.785.189-.452-.33-17.197-3.993-30.426-16.269-37.063-34.394-1.621-4.429-2.34-6.088-1.946-4.493m104.159 23.162c-3.275.44-5.876.879-5.78.976.275.274 11.691-1.185 12.107-1.548.234-.204.234-.306 0-.276l-6.327.848m-10.06 1.448c-1.329.238-1.387.284-.391.312.645.019 1.875-.112 2.735-.29 2.044-.423.002-.442-2.344-.022m-3.125 21.041c-18.985 18.935-21.06 20.883-25 23.47-10.811 7.098-20.429 9.854-32.422 9.291-2.806-.132-3.687-.091-2.539.118 15.51 2.816 31.773-4.074 48.025-20.344l32.832-33.185c-.106.001-9.509 9.293-20.896 20.65m-48.633-14.19c2.718.911 7.948 1.732 12.076 1.895 2.059.081 3.129.08 2.377-.003l-5.078-.552c-2.041-.222-4.854-.645-6.25-.941-4.45-.941-4.923-1.001-3.125-.399m16.439 2.274c.089.078 2.536.23 5.436.338 3.146.117 4.564.072 3.516-.112-1.746-.307-9.264-.496-8.952-.226m11.078.996c.732 1.183-10.459 4.206-17.947 4.848l-1.562.134 1.787.065c2.361.087 9.724-1.257 13.533-2.469 3.062-.975 6.13-2.891 4.676-2.92-.388-.007-.608.146-.487.342m-26.345 5.113c2.232.326 6.893.499 6.608.246-.09-.079-2.096-.238-4.46-.352-2.928-.141-3.612-.107-2.148.106" fill="#040414"/>
  <path d="M231.641 29.419c0 .067.571.639 1.269 1.27l1.27 1.147-1.148-1.27c-1.069-1.183-1.391-1.449-1.391-1.147m13.655 13.647l1.856 1.856c.293 0-.017-.351-1.742-1.97l-1.855-1.741 1.741 1.855M142.376 63.77l-4.29 4.394 4.394-4.29 4.291-4.499c-.058 0-2.035 1.978-4.395 4.395m119.343-3.882c0 .067.571.638 1.269 1.269l1.27 1.148-1.147-1.27c-1.07-1.183-1.392-1.449-1.392-1.147m-111.607 8.667c.003 1.074.079 1.467.168.873s.088-1.472-.005-1.953-.166.005-.163 1.08m-.006 4.101c0 .967.077 1.363.17.879s.093-1.274 0-1.758-.17-.088-.17.879m126.457 2.466c0 .067.571.639 1.269 1.27l1.27 1.147-1.148-1.269c-1.069-1.184-1.391-1.45-1.391-1.148m-155.085 9.546l-4.486 4.59 4.59-4.486 4.486-4.694c-.057 0-2.123 2.066-4.59 4.59m170.905 6.738c.839.86 1.613 1.563 1.721 1.563s-.491-.703-1.331-1.563-1.613-1.562-1.721-1.562.492.703 1.331 1.562m-71.573 17.969c0 .967.076 1.362.169.879s.093-1.275 0-1.758-.169-.088-.169.879m89.33.098l1.855 1.855c.294 0-.016-.351-1.741-1.969l-1.856-1.742 1.742 1.856m-89.338 22.363c.004.859.084 1.165.177.679s.09-1.189-.007-1.563-.175.025-.17.884m127.245 16.318c0 .059 1.362 1.422 3.027 3.028l3.028 2.92-2.92-3.028c-2.712-2.812-3.135-3.205-3.135-2.92m-263.501 7.022l-1.148 1.269 1.27-1.147c.698-.631 1.27-1.202 1.27-1.27 0-.301-.323-.036-1.392 1.148m-34.958 1.367l-1.346 1.465 1.465-1.346c1.363-1.253 1.644-1.584 1.346-1.584-.065 0-.724.659-1.465 1.465m-9.94 81.348l2.12 1.953c.107 0-.671-.879-1.729-1.953l-2.119-1.953c-.107 0 .67.878 1.728 1.953m16.195 16.504l1.856 1.855c.293 0-.017-.351-1.742-1.969l-1.855-1.742 1.741 1.856m282.621 7.031l-2.331 2.441 2.441-2.331 2.442-2.442c0-.288-.386.064-2.552 2.332m-8.979 8.984l-3.899 4.004 4.004-3.899 4.004-4.004c0-.282-.488.18-4.109 3.899m-250.969 7.129l3.498 3.32c.107 0-1.291-1.494-3.108-3.32l-3.498-3.32c-.108 0 1.291 1.494 3.108 3.32m23.047 23.438l2.711 2.539c.108 0-.937-1.143-2.321-2.539l-2.712-2.539c-.107 0 .937 1.142 2.322 2.539m25.585 25.976c.84.86 1.614 1.563 1.721 1.563s-.491-.703-1.33-1.563-1.614-1.562-1.721-1.562.491.703 1.33 1.562m139.835 5.957l-3.116 3.223 3.223-3.116 3.116-3.329c-.059 0-1.509 1.45-3.223 3.222m-11.713 11.719l-7.809 7.91 7.91-7.809c7.35-7.255 8.087-8.011 7.809-8.011-.056 0-3.615 3.559-7.91 7.91m-109.372 1.465c1.059 1.074 2.012 1.953 2.12 1.953s-.671-.879-1.729-1.953-2.012-1.953-2.119-1.953.67.879 1.728 1.953" fill="#788ca4"/>
</svg>