<?xml version="1.0" encoding="UTF-8" standalone="yes"?>
<svg version="1.2" width="400" height="400" viewBox="0, 0, 400,400" baseProfile="tiny-ps" xmlns="http://www.w3.org/2000/svg">
  <title>bimi-svg-tiny-12-ps</title>
  <g id="svgg">
    <path id="path0" d="M229.952 27.937 C 229.823 28.363,229.106 32.051,228.359 36.133 C 218.067 92.401,218.546 155.034,229.868 233.594 C 236.206 277.573,239.920 287.374,254.375 298.263 C 260.883 303.166,278.122 312.597,283.488 314.190 L 285.503 314.789 328.230 271.750 C 369.844 229.833,373.082 226.410,376.156 221.097 C 384.466 206.733,383.101 188.337,372.682 174.285 C 369.760 170.344,367.325 167.766,345.131 145.117 C 311.228 110.519,290.638 89.462,268.555 66.800 C 256.309 54.234,242.928 40.569,238.820 36.434 C 234.712 32.299,231.090 28.521,230.770 28.039 C 230.206 27.191,230.181 27.188,229.952 27.937 M100.912 105.210 C 46.868 159.252,34.666 171.703,30.985 176.561 C 19.915 191.174,19.024 210.643,28.757 225.285 C 31.615 229.584,34.977 233.064,105.465 304.688 C 118.045 317.471,136.379 336.125,146.206 346.142 C 165.913 366.229,167.709 367.779,175.977 371.839 C 195.607 381.481,215.100 379.629,232.813 366.439 C 236.004 364.063,275.572 324.499,274.973 324.284 C 274.773 324.212,274.609 323.800,274.609 323.368 C 274.609 322.658,274.431 322.606,272.754 322.821 C 271.733 322.951,265.801 323.748,259.570 324.592 C 236.839 327.670,228.212 327.716,216.194 324.826 C 196.311 320.044,188.256 309.809,180.670 279.688 C 171.446 243.062,161.106 228.958,129.688 210.146 C 104.707 195.188,96.210 186.409,92.297 171.513 C 87.824 154.488,96.951 138.559,121.289 120.915 C 141.362 106.363,149.676 92.736,150.018 73.828 C 150.155 66.273,149.980 56.643,149.707 56.675 C 149.546 56.694,127.588 78.535,100.912 105.210 M86.119 155.818 C 81.445 167.322,82.532 181.228,88.929 191.765 C 94.810 201.452,100.177 205.919,124.414 221.298 C 155.082 240.758,162.908 251.031,171.127 282.617 C 178.089 309.372,185.437 321.160,199.380 327.943 C 205.661 330.998,211.182 332.048,225.798 332.962 C 235.367 333.561,236.093 333.798,233.459 335.469 C 228.281 338.752,212.908 340.795,204.492 339.317 C 192.763 337.258,181.930 330.623,174.450 320.918 C 168.904 313.723,166.785 309.129,161.105 291.992 C 153.600 269.350,151.790 264.954,147.019 257.771 C 139.843 246.971,129.456 237.787,114.351 228.887 C 84.849 211.505,71.367 193.724,74.966 176.943 C 76.964 167.624,80.584 159.417,84.483 155.362 C 87.182 152.555,87.418 152.621,86.119 155.818 " stroke="none" fill="#fbfbfb" fill-rule="evenodd"/>
    <path id="path1" d="M0.000 200.000 L 0.000 400.000 200.000 400.000 L 400.000 400.000 400.000 200.000 L 400.000 0.000 200.000 0.000 L 0.000 0.000 0.000 200.000 M231.256 27.745 C 231.439 28.041,231.486 28.450,231.359 28.655 C 231.233 28.860,231.298 28.923,231.504 28.796 C 231.822 28.599,242.513 39.319,266.797 64.187 C 269.697 67.157,272.070 69.795,272.070 70.048 C 272.070 70.301,272.334 70.516,272.656 70.526 C 272.979 70.535,273.198 70.755,273.145 71.014 C 273.091 71.273,273.186 71.440,273.356 71.387 C 273.525 71.333,277.696 75.420,282.625 80.469 C 302.140 100.462,326.699 125.558,333.297 132.250 C 337.123 136.129,340.117 139.453,339.951 139.636 C 339.785 139.819,339.842 139.859,340.079 139.724 C 340.316 139.589,341.986 141.006,343.790 142.873 C 345.594 144.741,351.768 151.088,357.509 156.978 C 363.250 162.868,367.866 167.818,367.767 167.979 C 367.668 168.140,367.848 168.488,368.168 168.754 C 368.488 169.019,368.757 169.083,368.766 168.895 C 368.775 168.708,369.295 169.155,369.922 169.888 C 370.548 170.621,370.953 171.412,370.820 171.646 C 370.687 171.879,370.720 171.942,370.894 171.784 C 371.068 171.627,371.975 172.483,372.910 173.687 C 374.485 175.715,374.778 176.279,374.656 177.051 C 374.630 177.212,374.829 177.300,375.098 177.246 C 375.366 177.192,375.562 177.454,375.532 177.828 C 375.503 178.201,375.601 178.432,375.751 178.339 C 376.132 178.103,378.974 183.949,378.696 184.399 C 378.572 184.600,378.674 184.766,378.925 184.766 C 379.176 184.766,379.276 185.038,379.148 185.372 C 379.020 185.705,379.063 185.887,379.243 185.775 C 379.680 185.505,380.581 188.565,380.231 189.131 C 380.052 189.420,380.134 189.465,380.465 189.260 C 380.847 189.024,380.924 189.200,380.777 189.969 C 380.657 190.595,380.733 190.898,380.972 190.750 C 381.212 190.603,381.287 190.906,381.168 191.532 C 381.047 192.162,381.123 192.461,381.366 192.311 C 381.620 192.154,381.679 192.671,381.532 193.768 C 381.402 194.730,381.444 195.240,381.628 194.942 C 381.831 194.614,382.004 195.245,382.089 196.623 C 382.165 197.837,382.084 198.829,381.910 198.829 C 381.736 198.828,381.718 200.525,381.870 202.598 C 382.067 205.280,382.024 206.292,381.722 206.105 C 381.430 205.924,381.369 206.293,381.529 207.279 C 381.674 208.169,381.618 208.626,381.382 208.480 C 381.153 208.338,381.071 208.726,381.178 209.451 C 381.286 210.188,381.204 210.565,380.968 210.419 C 380.734 210.274,380.659 210.584,380.777 211.203 C 380.903 211.859,380.825 212.135,380.562 211.972 C 380.301 211.811,380.232 212.026,380.371 212.561 C 380.513 213.101,380.442 213.311,380.176 213.146 C 379.910 212.982,379.840 213.192,379.981 213.732 C 380.122 214.273,380.052 214.483,379.785 214.318 C 379.519 214.154,379.449 214.364,379.590 214.904 C 379.754 215.532,379.680 215.666,379.298 215.430 C 378.979 215.233,378.880 215.267,379.037 215.520 C 379.375 216.068,378.530 218.414,378.091 218.143 C 377.900 218.025,377.859 218.230,378.001 218.598 C 378.174 219.050,378.110 219.178,377.805 218.989 C 377.500 218.801,377.437 218.928,377.610 219.380 C 377.798 219.871,377.729 219.964,377.350 219.730 C 377.010 219.520,376.926 219.562,377.104 219.851 C 377.413 220.349,374.517 225.132,374.099 224.815 C 373.950 224.702,373.910 224.720,374.010 224.856 C 374.335 225.297,373.411 226.592,372.967 226.318 C 372.730 226.171,372.637 226.215,372.761 226.415 C 372.884 226.616,372.633 227.214,372.201 227.745 C 371.770 228.276,371.547 228.464,371.706 228.162 C 371.899 227.797,371.843 227.708,371.538 227.896 C 371.287 228.052,371.191 228.357,371.326 228.575 C 371.461 228.794,361.728 238.845,349.697 250.912 C 337.666 262.979,326.199 274.558,324.215 276.644 C 322.231 278.730,320.497 280.400,320.362 280.355 C 320.227 280.310,320.066 280.449,320.003 280.664 C 319.811 281.325,317.078 283.963,316.778 283.777 C 316.622 283.681,316.278 283.864,316.012 284.184 C 315.747 284.504,315.666 284.766,315.833 284.766 C 316.000 284.766,315.825 285.110,315.444 285.531 C 315.063 285.953,314.640 286.260,314.504 286.215 C 314.369 286.170,314.203 286.309,314.137 286.523 C 313.927 287.200,312.400 288.656,312.097 288.469 C 311.938 288.370,311.568 288.596,311.275 288.969 C 310.784 289.595,310.804 289.604,311.523 289.089 C 311.953 288.782,306.329 294.539,299.026 301.882 C 289.208 311.754,285.511 315.234,284.842 315.234 C 284.345 315.234,284.037 315.075,284.157 314.880 C 284.278 314.685,283.997 314.625,283.533 314.746 C 282.993 314.888,282.783 314.817,282.947 314.551 C 283.112 314.285,282.901 314.215,282.361 314.356 C 281.733 314.520,281.599 314.445,281.835 314.064 C 282.036 313.740,281.999 313.646,281.736 313.808 C 281.230 314.121,275.704 311.536,276.078 311.161 C 276.224 311.016,276.012 311.023,275.608 311.179 C 275.056 311.390,274.952 311.331,275.192 310.944 C 275.395 310.615,275.360 310.520,275.096 310.683 C 274.506 311.047,273.391 310.547,273.695 310.055 C 273.837 309.826,273.763 309.760,273.527 309.906 C 272.995 310.235,271.048 309.375,271.322 308.932 C 271.433 308.751,271.223 308.718,270.855 308.860 C 270.364 309.048,270.270 308.979,270.504 308.600 C 270.706 308.273,270.672 308.176,270.411 308.337 C 269.872 308.671,266.706 306.871,267.089 306.449 C 267.251 306.270,267.174 306.245,266.918 306.391 C 266.338 306.724,263.958 305.324,264.357 304.884 C 264.517 304.707,264.429 304.689,264.161 304.843 C 263.571 305.182,261.994 304.165,262.405 303.711 C 262.565 303.535,262.476 303.517,262.208 303.671 C 261.680 303.974,260.037 303.026,260.354 302.602 C 260.460 302.460,260.433 302.428,260.294 302.532 C 259.872 302.845,257.045 301.075,257.303 300.658 C 257.435 300.445,257.357 300.384,257.131 300.525 C 256.374 300.992,247.027 293.279,247.474 292.557 C 247.570 292.402,247.342 292.036,246.968 291.743 C 246.346 291.255,246.333 291.276,246.821 291.992 C 247.113 292.422,246.722 292.090,245.952 291.255 C 245.182 290.420,244.662 289.558,244.797 289.339 C 244.933 289.119,244.851 289.060,244.611 289.208 C 244.108 289.520,243.253 288.141,243.666 287.684 C 243.820 287.514,243.726 287.501,243.457 287.656 C 242.995 287.922,242.774 287.423,242.955 286.523 C 242.998 286.309,242.903 286.264,242.743 286.423 C 242.328 286.838,241.305 285.245,241.639 284.705 C 241.794 284.455,241.747 284.359,241.535 284.491 C 241.049 284.791,239.349 281.344,239.701 280.774 C 239.859 280.519,239.783 280.460,239.513 280.627 C 239.095 280.886,238.909 280.345,238.957 279.008 C 238.966 278.742,238.818 278.620,238.628 278.738 C 238.310 278.935,238.132 278.271,238.176 277.055 C 238.185 276.789,238.009 276.684,237.785 276.823 C 237.528 276.982,237.458 276.764,237.597 276.232 C 237.719 275.769,237.680 275.475,237.511 275.579 C 237.116 275.823,236.641 273.488,236.976 272.946 C 237.135 272.690,237.039 272.653,236.722 272.849 C 236.340 273.085,236.263 272.910,236.410 272.140 C 236.530 271.514,236.454 271.211,236.215 271.359 C 235.976 271.507,235.900 271.204,236.020 270.578 C 236.139 269.952,236.064 269.649,235.824 269.796 C 235.585 269.944,235.509 269.641,235.629 269.015 C 235.749 268.389,235.673 268.086,235.434 268.234 C 235.194 268.382,235.119 268.075,235.241 267.441 C 235.350 266.872,235.267 266.406,235.057 266.406 C 234.846 266.406,234.758 265.972,234.859 265.442 C 234.960 264.911,234.904 264.563,234.734 264.668 C 234.315 264.927,233.829 261.506,234.200 260.905 C 234.400 260.582,234.333 260.527,233.996 260.735 C 233.616 260.970,233.535 260.711,233.658 259.651 C 233.751 258.856,233.666 258.354,233.460 258.481 C 233.255 258.608,233.175 258.182,233.275 257.498 C 233.378 256.798,233.298 256.387,233.083 256.519 C 232.868 256.652,232.782 256.168,232.877 255.354 C 232.969 254.569,232.884 254.058,232.682 254.182 C 232.480 254.307,232.395 253.796,232.487 253.010 C 232.579 252.216,232.494 251.713,232.288 251.841 C 232.083 251.967,232.003 251.541,232.103 250.857 C 232.206 250.157,232.126 249.746,231.912 249.879 C 231.696 250.012,231.610 249.528,231.705 248.714 C 231.797 247.928,231.712 247.417,231.510 247.542 C 231.308 247.666,231.223 247.155,231.315 246.370 C 231.406 245.584,231.321 245.073,231.119 245.198 C 230.918 245.323,230.832 244.811,230.924 244.026 C 231.019 243.213,230.933 242.728,230.718 242.861 C 230.496 242.998,230.441 242.412,230.578 241.389 C 230.737 240.205,230.688 239.861,230.419 240.255 C 230.142 240.660,230.068 240.358,230.160 239.193 C 230.233 238.269,230.132 237.662,229.928 237.788 C 229.718 237.918,229.663 237.306,229.797 236.311 C 229.955 235.132,229.907 234.784,229.639 235.177 C 229.367 235.577,229.289 235.212,229.373 233.924 C 229.439 232.912,229.336 232.202,229.140 232.324 C 228.939 232.448,228.881 231.842,229.005 230.919 C 229.147 229.863,229.083 229.383,228.823 229.544 C 228.568 229.701,228.478 229.221,228.575 228.209 C 228.660 227.314,228.570 226.724,228.368 226.849 C 228.160 226.978,228.098 226.288,228.221 225.201 C 228.337 224.173,228.295 223.554,228.127 223.824 C 227.731 224.466,227.188 219.106,227.528 217.903 C 227.736 217.167,227.700 217.104,227.341 217.578 C 226.996 218.033,226.934 217.708,227.062 216.126 C 227.166 214.840,227.084 214.177,226.839 214.328 C 226.593 214.480,226.524 213.822,226.648 212.524 C 226.776 211.199,226.717 210.664,226.480 211.002 C 226.242 211.343,226.173 210.817,226.280 209.486 C 226.385 208.200,226.303 207.536,226.058 207.688 C 225.812 207.840,225.742 207.182,225.867 205.883 C 225.975 204.760,225.934 204.049,225.777 204.304 C 225.387 204.934,224.883 199.269,225.201 197.829 C 225.400 196.924,225.360 196.804,225.013 197.266 C 224.673 197.719,224.599 197.350,224.689 195.642 C 224.753 194.427,224.650 193.528,224.461 193.646 C 224.270 193.764,224.194 192.790,224.291 191.457 C 224.395 190.014,224.327 189.252,224.121 189.547 C 223.914 189.844,223.836 189.070,223.926 187.594 C 224.007 186.250,223.954 185.343,223.808 185.579 C 223.439 186.177,222.928 178.413,223.235 176.856 C 223.431 175.862,223.389 175.713,223.043 176.172 C 222.707 176.618,222.641 176.014,222.769 173.633 C 222.873 171.687,222.810 170.803,222.600 171.289 C 222.389 171.778,222.312 170.762,222.394 168.577 C 222.465 166.655,222.390 165.425,222.227 165.842 C 222.010 166.398,221.920 166.182,221.894 165.039 C 221.874 164.180,221.591 159.258,221.264 154.102 C 220.199 137.259,220.048 96.034,221.055 96.656 C 221.202 96.747,221.272 95.119,221.209 93.040 C 221.139 90.724,221.223 89.560,221.426 90.037 C 221.627 90.510,221.693 89.514,221.594 87.498 C 221.489 85.355,221.562 84.367,221.799 84.709 C 222.038 85.052,222.106 84.228,221.993 82.365 C 221.879 80.493,221.947 79.677,222.188 80.022 C 222.429 80.367,222.497 79.551,222.383 77.678 C 222.281 75.994,222.349 75.003,222.548 75.285 C 222.750 75.570,222.841 74.700,222.772 73.136 C 222.694 71.358,222.769 70.761,223.005 71.289 C 223.233 71.802,223.290 71.200,223.169 69.531 C 223.054 67.939,223.119 67.181,223.343 67.497 C 223.568 67.816,223.632 67.182,223.516 65.781 C 223.413 64.541,223.484 63.655,223.677 63.775 C 223.868 63.893,223.971 63.083,223.906 61.975 C 223.830 60.674,223.915 60.145,224.145 60.482 C 224.372 60.814,224.440 60.246,224.332 58.920 C 224.217 57.511,224.285 57.011,224.539 57.377 C 224.793 57.742,224.847 57.309,224.705 56.049 C 224.567 54.826,224.633 54.265,224.894 54.427 C 225.153 54.587,225.231 54.025,225.117 52.825 C 224.987 51.463,225.048 51.131,225.350 51.563 C 225.652 51.996,225.698 51.767,225.524 50.684 C 225.394 49.878,225.448 49.219,225.643 49.219 C 225.838 49.219,225.938 48.472,225.866 47.559 C 225.773 46.373,225.846 46.060,226.122 46.464 C 226.391 46.858,226.440 46.514,226.281 45.330 C 226.144 44.307,226.200 43.721,226.421 43.858 C 226.635 43.990,226.732 43.483,226.651 42.648 C 226.547 41.568,226.613 41.356,226.917 41.797 C 227.212 42.224,227.255 41.970,227.076 40.857 C 226.923 39.905,226.974 39.420,227.212 39.567 C 227.439 39.708,227.525 39.338,227.424 38.651 C 227.331 38.018,227.420 37.500,227.622 37.500 C 227.824 37.500,227.909 36.948,227.810 36.273 C 227.704 35.551,227.783 35.140,228.002 35.275 C 228.220 35.410,228.301 35.007,228.197 34.299 C 228.080 33.501,228.162 33.180,228.440 33.352 C 228.724 33.527,228.794 33.133,228.655 32.138 C 228.492 30.959,228.543 30.781,228.911 31.250 C 229.305 31.752,229.339 31.737,229.147 31.143 C 228.350 28.670,230.093 25.862,231.256 27.745 M252.148 50.000 C 253.857 51.719,255.343 53.125,255.450 53.125 C 255.558 53.125,254.248 51.719,252.539 50.000 C 250.830 48.281,249.345 46.875,249.237 46.875 C 249.130 46.875,250.440 48.281,252.148 50.000 M150.331 60.907 C 150.249 63.291,150.305 64.932,150.455 64.554 C 150.604 64.176,150.726 66.768,150.726 70.313 C 150.726 74.121,150.593 76.438,150.400 75.977 C 150.204 75.507,150.162 76.115,150.293 77.502 C 150.447 79.124,150.385 79.730,150.084 79.544 C 149.790 79.362,149.726 79.710,149.879 80.655 C 150.009 81.455,149.940 82.031,149.715 82.031 C 149.501 82.031,149.416 82.497,149.525 83.066 C 149.675 83.851,149.599 84.024,149.209 83.783 C 148.837 83.553,148.765 83.646,148.946 84.120 C 149.251 84.913,148.848 87.168,148.446 86.920 C 148.289 86.822,148.248 87.203,148.355 87.765 C 148.481 88.421,148.404 88.697,148.140 88.534 C 147.879 88.373,147.810 88.588,147.950 89.123 C 148.091 89.663,148.021 89.874,147.754 89.709 C 147.488 89.544,147.418 89.755,147.559 90.295 C 147.700 90.835,147.630 91.045,147.364 90.881 C 147.097 90.716,147.027 90.927,147.168 91.467 C 147.307 91.998,147.238 92.216,146.981 92.057 C 146.756 91.919,146.580 92.023,146.590 92.289 C 146.635 93.543,146.450 94.166,146.098 93.948 C 145.869 93.806,145.817 93.982,145.969 94.380 C 146.158 94.871,146.088 94.964,145.709 94.730 C 145.366 94.518,145.285 94.561,145.470 94.860 C 145.842 95.462,142.993 100.842,142.472 100.520 C 142.249 100.383,142.183 100.457,142.324 100.687 C 142.924 101.657,132.322 113.867,130.880 113.867 C 130.689 113.867,130.387 114.027,130.208 114.223 C 130.017 114.432,130.124 114.460,130.469 114.292 C 130.791 114.135,130.538 114.448,129.906 114.988 C 129.274 115.527,128.587 115.865,128.380 115.737 C 128.174 115.609,128.124 115.698,128.271 115.936 C 128.553 116.393,127.031 117.434,126.367 117.238 C 126.152 117.174,126.105 117.251,126.262 117.408 C 126.651 117.797,122.648 120.744,122.150 120.436 C 121.931 120.301,121.873 120.384,122.021 120.623 C 122.332 121.127,120.954 121.981,120.497 121.568 C 120.326 121.415,120.314 121.509,120.468 121.777 C 120.725 122.223,120.263 122.451,119.405 122.302 C 119.227 122.271,119.188 122.418,119.318 122.627 C 119.607 123.095,118.192 123.909,117.762 123.521 C 117.592 123.368,117.574 123.453,117.722 123.711 C 118.004 124.204,116.512 125.255,115.820 125.050 C 115.605 124.987,115.560 125.066,115.720 125.225 C 116.041 125.546,114.450 126.814,113.936 126.647 C 113.759 126.590,113.717 126.710,113.843 126.914 C 114.062 127.268,111.733 129.202,111.328 129.002 C 111.221 128.950,111.126 129.038,111.117 129.199 C 111.097 129.571,102.250 138.405,101.855 138.446 C 101.694 138.463,101.545 138.652,101.524 138.867 C 101.443 139.684,100.726 140.637,100.361 140.412 C 100.152 140.282,100.013 140.321,100.052 140.498 C 100.195 141.140,99.518 142.177,99.117 141.930 C 98.892 141.790,98.812 141.846,98.941 142.054 C 99.248 142.552,97.880 144.625,97.497 144.241 C 97.334 144.079,97.236 144.121,97.279 144.336 C 97.455 145.208,97.240 145.733,96.815 145.471 C 96.550 145.307,96.469 145.362,96.619 145.604 C 96.952 146.144,95.152 149.310,94.730 148.927 C 94.552 148.765,94.520 148.832,94.659 149.076 C 94.977 149.633,94.174 152.020,93.756 151.762 C 93.586 151.657,93.455 151.789,93.465 152.055 C 93.509 153.279,93.330 153.934,93.005 153.733 C 92.810 153.613,92.750 153.894,92.871 154.357 C 93.006 154.874,92.939 155.106,92.696 154.956 C 92.451 154.804,92.375 155.100,92.496 155.734 C 92.611 156.336,92.537 156.661,92.315 156.524 C 92.091 156.386,92.010 156.781,92.115 157.498 C 92.213 158.162,92.137 158.609,91.947 158.492 C 91.754 158.373,91.602 160.319,91.602 162.892 C 91.602 165.430,91.745 167.302,91.920 167.054 C 92.099 166.798,92.177 167.227,92.099 168.039 C 92.020 168.855,92.116 169.380,92.322 169.253 C 92.526 169.126,92.606 169.553,92.506 170.236 C 92.401 170.953,92.482 171.349,92.705 171.210 C 92.927 171.073,93.002 171.398,92.887 172.000 C 92.765 172.634,92.842 172.930,93.087 172.779 C 93.329 172.629,93.397 172.860,93.262 173.377 C 93.121 173.917,93.191 174.128,93.457 173.963 C 93.724 173.798,93.794 174.009,93.653 174.549 C 93.511 175.089,93.582 175.299,93.848 175.135 C 94.114 174.970,94.185 175.181,94.043 175.721 C 93.902 176.261,93.972 176.471,94.239 176.307 C 94.505 176.142,94.575 176.352,94.434 176.893 C 94.291 177.438,94.362 177.644,94.634 177.476 C 94.910 177.305,94.957 177.469,94.772 177.951 C 94.617 178.356,94.616 178.561,94.769 178.408 C 95.053 178.124,96.562 181.038,96.596 181.934 C 96.606 182.202,96.701 182.335,96.807 182.229 C 97.164 181.872,98.095 183.590,97.812 184.083 C 97.657 184.351,97.674 184.441,97.849 184.282 C 98.197 183.967,100.653 187.083,100.479 187.618 C 100.420 187.800,100.532 187.849,100.728 187.728 C 101.101 187.498,103.317 190.142,103.319 190.820 C 103.320 191.035,103.511 191.211,103.745 191.211 C 103.978 191.211,105.208 192.167,106.479 193.335 C 107.750 194.504,108.542 195.311,108.240 195.130 C 107.866 194.905,107.781 194.946,107.974 195.259 C 108.130 195.510,108.387 195.636,108.546 195.537 C 108.705 195.439,109.352 195.801,109.984 196.341 C 110.616 196.880,110.869 197.193,110.547 197.036 C 110.225 196.879,110.078 196.880,110.221 197.040 C 110.365 197.200,110.540 197.274,110.612 197.204 C 110.886 196.936,114.417 199.742,114.216 200.067 C 114.100 200.256,114.149 200.385,114.326 200.354 C 115.159 200.209,115.645 200.432,115.392 200.842 C 115.239 201.091,115.284 201.188,115.493 201.058 C 116.006 200.741,119.223 202.905,118.850 203.316 C 118.688 203.495,118.741 203.535,118.970 203.405 C 119.518 203.094,121.577 204.456,121.195 204.877 C 121.032 205.057,121.118 205.077,121.386 204.923 C 121.961 204.592,123.567 205.600,123.142 206.025 C 122.982 206.184,123.027 206.280,123.242 206.236 C 124.114 206.060,124.640 206.275,124.377 206.701 C 124.204 206.980,124.270 207.046,124.548 206.874 C 125.089 206.539,126.682 207.563,126.267 207.978 C 126.107 208.138,126.152 208.219,126.367 208.158 C 127.094 207.954,128.530 208.645,128.266 209.073 C 128.110 209.325,128.187 209.383,128.455 209.217 C 129.010 208.874,130.576 209.908,130.173 210.352 C 130.014 210.528,130.102 210.546,130.370 210.392 C 130.960 210.052,132.538 211.070,132.126 211.523 C 131.967 211.700,132.048 211.723,132.306 211.574 C 132.897 211.235,136.453 213.406,136.043 213.856 C 135.878 214.039,135.962 214.061,136.230 213.907 C 136.722 213.624,138.440 214.554,138.083 214.911 C 137.977 215.017,138.154 215.104,138.476 215.104 C 139.355 215.104,144.126 218.458,143.860 218.888 C 143.733 219.093,143.816 219.146,144.044 219.005 C 144.272 218.864,145.398 219.477,146.546 220.368 C 148.859 222.164,149.739 222.956,148.865 222.458 C 148.486 222.242,148.408 222.292,148.612 222.622 C 148.774 222.884,149.001 223.004,149.116 222.889 C 149.450 222.556,151.558 224.212,151.458 224.729 C 151.408 224.985,151.564 225.159,151.805 225.114 C 152.764 224.937,162.286 235.335,161.835 236.066 C 161.705 236.276,161.792 236.329,162.029 236.182 C 162.533 235.871,163.387 237.249,162.975 237.707 C 162.821 237.877,162.906 237.895,163.164 237.747 C 163.640 237.474,164.582 238.747,164.244 239.206 C 164.144 239.342,164.181 239.364,164.325 239.256 C 164.718 238.960,166.792 242.264,166.518 242.747 C 166.388 242.977,166.425 243.033,166.602 242.874 C 167.055 242.462,168.073 244.040,167.733 244.630 C 167.579 244.898,167.598 244.986,167.775 244.826 C 168.204 244.436,169.621 246.804,169.284 247.349 C 169.114 247.626,169.203 247.664,169.537 247.457 C 169.916 247.223,169.986 247.317,169.797 247.808 C 169.656 248.176,169.683 248.390,169.858 248.282 C 170.299 248.009,171.950 251.515,171.627 252.039 C 171.457 252.313,171.548 252.351,171.881 252.145 C 172.260 251.911,172.329 252.004,172.141 252.495 C 171.968 252.947,172.032 253.074,172.336 252.886 C 172.641 252.697,172.705 252.825,172.532 253.277 C 172.390 253.645,172.431 253.850,172.623 253.732 C 173.061 253.461,173.907 255.807,173.568 256.355 C 173.428 256.581,173.504 256.645,173.740 256.500 C 174.252 256.184,174.774 257.621,174.379 258.260 C 174.211 258.532,174.268 258.610,174.521 258.453 C 175.033 258.137,175.555 259.574,175.160 260.213 C 174.973 260.515,175.051 260.562,175.392 260.351 C 175.774 260.115,175.848 260.249,175.684 260.877 C 175.563 261.341,175.604 261.633,175.776 261.527 C 176.191 261.270,176.661 263.196,176.319 263.750 C 176.145 264.031,176.232 264.072,176.564 263.866 C 176.945 263.630,177.020 263.765,176.856 264.393 C 176.715 264.933,176.785 265.143,177.051 264.979 C 177.317 264.814,177.388 265.024,177.246 265.564 C 177.105 266.105,177.175 266.315,177.442 266.150 C 177.708 265.986,177.778 266.196,177.637 266.736 C 177.496 267.276,177.566 267.487,177.832 267.322 C 178.099 267.158,178.169 267.368,178.028 267.908 C 177.888 268.443,177.958 268.658,178.218 268.497 C 178.482 268.334,178.559 268.610,178.433 269.266 C 178.312 269.900,178.388 270.196,178.634 270.044 C 178.876 269.894,178.944 270.126,178.809 270.643 C 178.669 271.177,178.739 271.393,178.999 271.232 C 179.263 271.069,179.340 271.344,179.215 272.000 C 179.095 272.626,179.171 272.929,179.410 272.782 C 179.649 272.634,179.725 272.937,179.605 273.563 C 179.498 274.125,179.529 274.512,179.675 274.422 C 180.074 274.175,180.968 278.024,180.636 278.561 C 180.443 278.874,180.515 278.924,180.856 278.713 C 181.238 278.477,181.315 278.652,181.168 279.421 C 181.061 279.982,181.133 280.495,181.328 280.560 C 181.524 280.625,181.718 281.317,181.760 282.097 C 181.802 282.877,181.993 283.419,182.186 283.301 C 182.378 283.183,182.447 283.547,182.340 284.110 C 182.220 284.736,182.296 285.039,182.535 284.891 C 182.774 284.743,182.850 285.046,182.730 285.672 C 182.611 286.298,182.686 286.601,182.926 286.454 C 183.165 286.306,183.241 286.609,183.121 287.235 C 183.000 287.868,183.076 288.165,183.321 288.013 C 183.564 287.863,183.631 288.095,183.496 288.611 C 183.357 289.146,183.426 289.361,183.687 289.200 C 183.950 289.037,184.028 289.313,183.902 289.969 C 183.781 290.603,183.857 290.899,184.102 290.747 C 184.345 290.598,184.413 290.829,184.278 291.346 C 184.136 291.886,184.207 292.096,184.473 291.932 C 184.739 291.767,184.810 291.977,184.668 292.518 C 184.527 293.058,184.597 293.268,184.864 293.104 C 185.130 292.939,185.200 293.149,185.059 293.689 C 184.918 294.230,184.988 294.440,185.254 294.275 C 185.521 294.111,185.591 294.321,185.450 294.861 C 185.328 295.325,185.357 295.625,185.512 295.529 C 185.930 295.271,186.815 297.965,186.488 298.496 C 186.323 298.762,186.377 298.844,186.620 298.694 C 187.107 298.393,188.000 300.678,187.630 301.277 C 187.473 301.531,187.573 301.564,187.897 301.363 C 188.284 301.124,188.343 301.228,188.132 301.779 C 187.976 302.184,187.971 302.393,188.120 302.245 C 188.516 301.848,189.914 304.642,189.597 305.195 C 189.449 305.453,189.466 305.540,189.634 305.388 C 190.056 305.007,191.873 307.764,191.548 308.290 C 191.391 308.544,191.467 308.602,191.737 308.436 C 192.146 308.183,192.369 308.669,192.224 309.502 C 192.193 309.679,192.339 309.718,192.549 309.588 C 192.914 309.363,193.631 310.316,193.711 311.133 C 193.733 311.348,193.900 311.523,194.084 311.523 C 194.267 311.523,194.898 312.095,195.486 312.793 C 196.073 313.491,196.415 314.063,196.246 314.063 C 195.869 314.063,196.803 315.037,197.188 315.044 C 197.846 315.057,199.946 316.962,199.727 317.347 C 199.593 317.582,199.623 317.648,199.793 317.494 C 200.181 317.144,201.653 317.897,201.395 318.314 C 201.291 318.482,201.418 318.633,201.677 318.650 C 202.451 318.699,208.970 322.150,208.734 322.386 C 208.614 322.505,208.913 322.500,209.397 322.373 C 209.967 322.224,210.188 322.289,210.021 322.558 C 209.857 322.825,210.067 322.895,210.607 322.754 C 211.148 322.612,211.358 322.683,211.193 322.949 C 211.029 323.215,211.239 323.285,211.779 323.144 C 212.407 322.980,212.541 323.055,212.305 323.436 C 212.107 323.758,212.142 323.854,212.400 323.695 C 213.022 323.310,215.261 323.860,214.972 324.327 C 214.833 324.552,214.912 324.613,215.150 324.466 C 215.657 324.153,218.804 324.597,218.585 324.951 C 218.502 325.085,219.076 325.209,219.862 325.225 C 222.430 325.278,227.014 325.893,226.626 326.133 C 226.417 326.262,230.344 326.367,235.352 326.367 C 240.359 326.367,244.254 326.224,244.006 326.049 C 243.758 325.874,244.655 325.797,246.000 325.879 C 247.344 325.960,248.241 325.901,247.992 325.748 C 247.744 325.594,248.870 325.344,250.496 325.191 C 252.121 325.039,253.669 325.049,253.935 325.213 C 254.265 325.417,254.318 325.350,254.102 325.001 C 253.855 324.600,254.136 324.537,255.409 324.708 C 256.465 324.850,256.945 324.786,256.785 324.526 C 256.627 324.271,257.107 324.181,258.119 324.278 C 259.021 324.364,259.604 324.274,259.478 324.069 C 259.348 323.859,259.932 323.800,260.878 323.927 C 261.934 324.068,262.414 324.005,262.253 323.745 C 262.095 323.490,262.576 323.400,263.588 323.496 C 264.457 323.579,265.073 323.493,264.956 323.304 C 264.840 323.115,265.541 323.024,266.514 323.101 C 267.497 323.179,268.188 323.086,268.068 322.892 C 267.945 322.693,268.660 322.633,269.721 322.752 C 270.863 322.881,271.379 322.830,271.049 322.620 C 270.681 322.387,270.967 322.276,271.941 322.272 C 272.729 322.268,273.629 322.168,273.940 322.048 C 274.442 321.856,274.649 322.161,275.149 323.828 C 275.181 323.936,275.320 324.201,275.459 324.417 C 275.814 324.972,236.044 364.955,235.482 364.608 C 235.214 364.443,235.142 364.505,235.302 364.764 C 235.567 365.193,234.082 366.266,233.467 366.089 C 233.290 366.038,233.251 366.168,233.380 366.377 C 233.633 366.785,232.299 367.672,231.887 367.369 C 231.752 367.269,231.726 367.302,231.831 367.443 C 232.148 367.869,228.959 370.000,228.463 369.694 C 228.187 369.523,228.108 369.579,228.266 369.833 C 228.530 370.261,227.094 370.953,226.367 370.748 C 226.152 370.687,226.109 370.770,226.271 370.932 C 226.685 371.347,223.534 373.152,222.986 372.814 C 222.723 372.651,222.641 372.706,222.789 372.946 C 223.093 373.438,221.978 373.938,221.389 373.574 C 221.159 373.431,221.086 373.500,221.226 373.727 C 221.531 374.219,220.416 374.719,219.826 374.355 C 219.591 374.210,219.524 374.282,219.672 374.521 C 219.988 375.033,218.551 375.555,217.912 375.160 C 217.610 374.973,217.563 375.051,217.774 375.392 C 218.010 375.774,217.876 375.848,217.248 375.684 C 216.784 375.563,216.490 375.601,216.595 375.770 C 216.839 376.165,214.504 376.640,213.962 376.305 C 213.705 376.147,213.669 376.242,213.865 376.559 C 214.101 376.941,213.925 377.018,213.156 376.871 C 212.537 376.753,212.227 376.828,212.372 377.062 C 212.518 377.298,212.141 377.380,211.404 377.272 C 210.682 377.166,210.292 377.247,210.432 377.474 C 210.578 377.710,210.023 377.767,208.967 377.625 C 208.032 377.500,207.489 377.534,207.760 377.702 C 208.303 378.038,203.617 378.518,199.843 378.512 C 196.648 378.508,193.336 378.089,193.565 377.718 C 193.667 377.553,193.020 377.516,192.128 377.636 C 190.855 377.806,190.573 377.743,190.821 377.343 C 191.023 377.015,190.983 376.927,190.709 377.096 C 190.166 377.432,187.063 376.953,187.300 376.570 C 187.397 376.413,187.016 376.373,186.454 376.480 C 185.797 376.606,185.522 376.529,185.685 376.265 C 185.846 376.004,185.630 375.935,185.096 376.075 C 184.556 376.216,184.345 376.146,184.510 375.879 C 184.674 375.613,184.464 375.543,183.924 375.684 C 183.384 375.825,183.173 375.755,183.338 375.489 C 183.503 375.222,183.292 375.152,182.752 375.293 C 182.124 375.457,181.990 375.383,182.226 375.001 C 182.437 374.660,182.390 374.583,182.088 374.770 C 181.449 375.164,180.012 374.642,180.328 374.130 C 180.485 373.877,180.407 373.820,180.135 373.988 C 179.496 374.383,178.059 373.861,178.375 373.349 C 178.525 373.106,178.455 373.038,178.210 373.190 C 177.688 373.512,173.401 371.468,173.674 371.027 C 173.781 370.854,173.567 370.828,173.198 370.969 C 172.708 371.158,172.614 371.088,172.848 370.709 C 173.060 370.365,173.017 370.285,172.717 370.470 C 172.223 370.776,170.591 369.813,170.901 369.399 C 171.007 369.257,170.984 369.222,170.849 369.320 C 170.432 369.627,168.320 368.349,168.571 367.942 C 168.701 367.731,168.663 367.584,168.486 367.615 C 167.628 367.764,167.166 367.536,167.422 367.090 C 167.577 366.821,167.564 366.727,167.394 366.881 C 166.937 367.294,165.559 366.439,165.870 365.936 C 166.018 365.696,165.960 365.614,165.739 365.750 C 165.520 365.885,164.658 365.365,163.823 364.595 C 162.988 363.824,162.656 363.433,163.086 363.726 C 163.802 364.213,163.823 364.201,163.335 363.579 C 163.042 363.205,162.666 362.983,162.499 363.086 C 162.060 363.358,133.947 334.548,134.286 334.174 C 134.442 334.001,134.383 333.965,134.155 334.095 C 133.712 334.346,121.289 321.629,121.289 320.925 C 121.289 320.695,121.025 320.500,120.703 320.490 C 120.381 320.480,120.165 320.247,120.225 319.973 C 120.284 319.698,120.183 319.565,120.002 319.677 C 119.528 319.970,111.632 311.942,111.999 311.539 C 112.167 311.354,112.108 311.315,111.867 311.453 C 111.621 311.593,109.929 310.120,108.012 308.097 C 106.132 306.114,100.616 300.461,95.754 295.534 C 90.892 290.607,87.266 286.819,87.695 287.117 C 88.375 287.587,88.410 287.584,87.969 287.091 C 87.689 286.779,87.306 286.523,87.117 286.523 C 86.598 286.523,65.413 264.761,65.537 264.356 C 65.596 264.163,65.491 264.099,65.303 264.215 C 65.115 264.331,63.314 262.719,61.301 260.631 C 59.288 258.544,53.944 253.050,49.426 248.424 C 32.258 230.844,30.807 229.307,31.032 228.943 C 31.159 228.738,31.057 228.442,30.805 228.287 C 30.496 228.096,30.450 228.182,30.661 228.553 C 31.088 229.301,30.437 228.619,29.369 227.200 C 28.906 226.584,28.625 225.921,28.745 225.726 C 28.866 225.531,28.732 225.420,28.447 225.479 C 28.161 225.538,27.954 225.282,27.983 224.907 C 28.013 224.533,27.893 224.316,27.718 224.424 C 27.275 224.698,24.143 218.339,24.396 217.680 C 24.522 217.350,24.430 217.252,24.153 217.424 C 23.848 217.612,23.776 217.431,23.925 216.857 C 24.067 216.317,23.997 216.107,23.730 216.271 C 23.464 216.436,23.394 216.226,23.535 215.686 C 23.675 215.151,23.605 214.936,23.344 215.097 C 23.081 215.260,23.004 214.984,23.129 214.328 C 23.249 213.702,23.173 213.399,22.934 213.546 C 22.695 213.694,22.619 213.391,22.738 212.765 C 22.856 212.152,22.781 211.837,22.551 211.979 C 22.317 212.124,22.231 211.672,22.330 210.823 C 22.425 210.015,22.339 209.525,22.127 209.656 C 21.907 209.792,21.845 209.132,21.971 208.014 C 22.100 206.872,22.048 206.355,21.839 206.686 C 21.632 207.012,21.496 205.210,21.496 202.148 C 21.496 198.922,21.627 197.277,21.854 197.636 C 22.086 198.002,22.131 197.601,21.984 196.502 C 21.803 195.153,21.863 194.868,22.273 195.121 C 22.655 195.358,22.719 195.258,22.519 194.738 C 22.198 193.900,22.617 191.336,23.033 191.593 C 23.194 191.692,23.247 191.367,23.152 190.870 C 23.057 190.373,23.214 189.720,23.501 189.417 C 23.789 189.115,24.041 188.647,24.062 188.379 C 24.185 186.850,24.252 186.693,24.670 186.951 C 24.950 187.124,25.015 187.058,24.841 186.778 C 24.520 186.259,27.269 180.376,27.706 180.647 C 27.865 180.745,27.995 180.595,27.995 180.313 C 27.995 179.467,31.320 174.997,31.752 175.264 C 31.972 175.400,32.042 175.333,31.907 175.115 C 31.595 174.610,34.344 171.534,43.181 162.500 C 47.069 158.525,52.680 152.774,55.649 149.718 C 58.618 146.663,61.179 144.244,61.339 144.343 C 61.499 144.442,61.847 144.261,62.113 143.941 C 62.378 143.621,62.451 143.359,62.273 143.359 C 62.096 143.359,62.630 142.664,63.461 141.813 C 64.291 140.963,65.162 140.376,65.396 140.508 C 65.629 140.641,65.687 140.603,65.524 140.424 C 65.155 140.018,66.782 138.226,67.254 138.518 C 67.443 138.634,67.549 138.497,67.490 138.213 C 67.431 137.928,67.616 137.744,67.900 137.803 C 68.185 137.862,68.324 137.759,68.210 137.574 C 67.980 137.202,71.208 133.877,71.737 133.943 C 71.920 133.966,72.070 133.812,72.070 133.601 C 72.070 132.962,82.552 122.691,82.952 122.938 C 83.156 123.064,83.219 122.997,83.090 122.789 C 82.840 122.384,99.930 105.087,100.586 105.081 C 100.801 105.080,100.985 104.858,100.994 104.590 C 101.004 104.321,101.268 104.160,101.580 104.232 C 101.893 104.303,102.018 104.232,101.859 104.072 C 101.478 103.692,102.327 102.678,102.788 102.963 C 102.984 103.084,103.096 103.010,103.037 102.798 C 102.911 102.344,132.471 72.806,132.907 72.949 C 133.070 73.003,133.159 72.906,133.105 72.735 C 132.928 72.167,149.747 55.841,150.122 56.216 C 150.319 56.412,150.413 58.523,150.331 60.907 M268.359 66.602 C 269.526 67.783,270.569 68.750,270.676 68.750 C 270.784 68.750,269.917 67.783,268.750 66.602 C 267.583 65.420,266.540 64.453,266.433 64.453 C 266.326 64.453,267.192 65.420,268.359 66.602 M283.398 82.031 C 284.674 83.320,285.806 84.375,285.913 84.375 C 286.020 84.375,285.065 83.320,283.789 82.031 C 282.513 80.742,281.382 79.688,281.274 79.688 C 281.167 79.688,282.123 80.742,283.398 82.031 M300.586 99.609 C 302.511 101.543,304.173 103.125,304.281 103.125 C 304.388 103.125,302.901 101.543,300.977 99.609 C 299.052 97.676,297.389 96.094,297.282 96.094 C 297.174 96.094,298.661 97.676,300.586 99.609 M220.794 104.688 C 220.794 105.439,220.874 105.747,220.972 105.371 C 221.071 104.995,221.071 104.380,220.972 104.004 C 220.874 103.628,220.794 103.936,220.794 104.688 M95.299 110.449 L 93.164 112.695 95.410 110.560 C 97.497 108.577,97.835 108.203,97.545 108.203 C 97.484 108.203,96.473 109.214,95.299 110.449 M317.383 116.797 C 319.523 118.945,321.362 120.703,321.470 120.703 C 321.577 120.703,319.914 118.945,317.773 116.797 C 315.633 114.648,313.794 112.891,313.687 112.891 C 313.579 112.891,315.242 114.648,317.383 116.797 M88.462 117.285 L 86.523 119.336 88.574 117.397 C 90.480 115.596,90.804 115.234,90.513 115.234 C 90.451 115.234,89.528 116.157,88.462 117.285 M334.180 133.984 C 335.888 135.703,337.374 137.109,337.482 137.109 C 337.589 137.109,336.279 135.703,334.570 133.984 C 332.862 132.266,331.376 130.859,331.268 130.859 C 331.161 130.859,332.471 132.266,334.180 133.984 M84.548 155.957 C 83.961 156.655,83.303 157.227,83.086 157.227 C 82.869 157.227,82.652 157.494,82.604 157.822 C 82.481 158.661,80.232 162.133,79.977 161.878 C 79.861 161.762,79.776 161.898,79.788 162.181 C 79.847 163.529,79.659 164.091,79.237 163.830 C 78.964 163.661,78.891 163.722,79.053 163.984 C 79.395 164.538,78.925 166.464,78.510 166.208 C 78.338 166.101,78.297 166.394,78.418 166.857 C 78.553 167.374,78.486 167.606,78.243 167.456 C 77.998 167.304,77.922 167.600,78.043 168.234 C 78.168 168.890,78.091 169.166,77.827 169.003 C 77.567 168.842,77.497 169.057,77.637 169.592 C 77.778 170.132,77.708 170.342,77.442 170.178 C 77.175 170.013,77.105 170.224,77.246 170.764 C 77.411 171.392,77.336 171.526,76.954 171.290 C 76.651 171.102,76.537 171.127,76.675 171.350 C 76.981 171.845,76.165 175.042,75.792 174.811 C 75.633 174.713,75.591 175.093,75.699 175.656 C 75.807 176.222,75.735 176.580,75.538 176.458 C 75.337 176.334,75.237 176.950,75.309 177.865 C 75.380 178.767,75.296 179.292,75.121 179.043 C 74.947 178.796,74.805 179.966,74.805 181.643 C 74.805 183.320,74.911 184.520,75.041 184.310 C 75.370 183.777,75.855 188.229,75.530 188.796 C 75.384 189.050,75.417 189.120,75.603 188.951 C 76.003 188.586,77.018 191.767,76.677 192.318 C 76.537 192.545,76.649 192.571,76.954 192.382 C 77.339 192.144,77.409 192.285,77.236 192.946 C 77.110 193.431,77.099 193.734,77.212 193.621 C 77.528 193.306,80.059 198.543,79.797 198.968 C 79.670 199.172,79.757 199.222,79.990 199.078 C 80.394 198.828,81.111 200.228,80.927 200.908 C 80.879 201.085,81.001 201.130,81.198 201.009 C 81.589 200.767,82.943 202.613,82.943 203.389 C 82.943 203.654,83.080 203.787,83.249 203.683 C 83.540 203.503,84.579 205.059,84.441 205.469 C 84.405 205.576,84.525 205.664,84.709 205.664 C 84.892 205.664,85.523 206.235,86.111 206.934 C 86.698 207.632,87.045 208.203,86.881 208.203 C 86.717 208.203,86.990 208.637,87.489 209.168 C 87.987 209.698,88.501 210.068,88.631 209.990 C 88.761 209.912,89.834 210.736,91.016 211.821 C 92.197 212.905,92.813 213.554,92.383 213.263 C 91.704 212.803,91.668 212.808,92.109 213.300 C 92.389 213.612,92.740 213.873,92.891 213.881 C 93.593 213.917,94.918 214.924,94.708 215.264 C 94.579 215.473,94.618 215.612,94.795 215.573 C 95.395 215.439,96.481 216.095,96.258 216.457 C 96.136 216.655,96.181 216.784,96.358 216.745 C 96.958 216.611,98.044 217.267,97.820 217.629 C 97.698 217.826,97.743 217.956,97.920 217.916 C 98.520 217.783,99.606 218.439,99.383 218.801 C 99.261 218.998,99.306 219.128,99.483 219.088 C 100.145 218.941,101.158 219.630,100.912 220.060 C 100.771 220.307,100.795 220.382,100.965 220.229 C 101.365 219.868,102.821 220.638,102.554 221.069 C 102.443 221.249,102.658 221.372,103.032 221.343 C 103.407 221.313,103.663 221.520,103.604 221.806 C 103.545 222.091,103.644 222.232,103.825 222.121 C 104.289 221.834,107.490 224.021,107.131 224.379 C 106.969 224.542,107.012 224.639,107.227 224.596 C 108.099 224.420,108.624 224.635,108.361 225.060 C 108.189 225.340,108.254 225.405,108.533 225.233 C 109.088 224.890,110.654 225.923,110.251 226.367 C 110.092 226.544,110.170 226.568,110.426 226.421 C 110.980 226.104,113.402 227.483,112.999 227.887 C 112.845 228.040,113.050 228.039,113.455 227.884 C 113.974 227.685,114.106 227.739,113.902 228.068 C 113.744 228.325,113.759 228.496,113.936 228.448 C 114.518 228.290,116.031 228.956,115.830 229.281 C 115.722 229.456,115.939 229.575,116.313 229.546 C 116.686 229.516,116.948 229.712,116.895 229.980 C 116.841 230.249,116.929 230.434,117.090 230.391 C 117.704 230.229,119.141 230.933,118.922 231.288 C 118.795 231.493,118.837 231.635,119.014 231.604 C 119.812 231.465,120.337 231.675,120.111 232.041 C 119.975 232.261,120.009 232.416,120.186 232.385 C 120.984 232.247,121.509 232.456,121.283 232.822 C 121.147 233.042,121.181 233.197,121.358 233.167 C 122.097 233.038,122.689 233.225,122.501 233.529 C 122.391 233.708,122.517 233.854,122.783 233.854 C 123.610 233.854,125.397 235.220,125.132 235.650 C 124.993 235.874,125.056 235.949,125.272 235.816 C 125.784 235.499,128.203 237.282,127.827 237.698 C 127.669 237.873,127.720 237.914,127.941 237.788 C 128.161 237.663,128.777 237.914,129.308 238.346 C 129.839 238.777,130.027 239.000,129.725 238.841 C 129.360 238.648,129.271 238.704,129.459 239.009 C 129.614 239.260,129.870 239.387,130.026 239.290 C 130.454 239.026,131.445 239.744,131.445 240.318 C 131.445 240.594,131.621 240.827,131.836 240.834 C 132.616 240.862,133.974 241.832,133.883 242.297 C 133.831 242.559,134.007 242.730,134.274 242.677 C 134.903 242.552,141.049 248.673,140.919 249.296 C 140.865 249.556,141.024 249.777,141.273 249.787 C 141.912 249.812,143.392 251.784,143.054 252.159 C 142.900 252.329,142.975 252.354,143.221 252.213 C 143.651 251.967,144.340 252.980,144.193 253.642 C 144.154 253.819,144.293 253.858,144.502 253.729 C 144.970 253.440,145.784 254.855,145.396 255.285 C 145.243 255.455,145.318 255.479,145.563 255.339 C 146.024 255.076,147.396 256.832,147.396 257.686 C 147.396 257.951,147.530 258.086,147.693 257.985 C 147.993 257.800,148.658 259.320,148.515 259.863 C 148.472 260.024,148.657 260.112,148.926 260.059 C 149.194 260.005,149.390 260.267,149.361 260.640 C 149.330 261.027,149.485 261.210,149.720 261.065 C 149.987 260.900,150.033 261.069,149.850 261.545 C 149.695 261.950,149.694 262.155,149.848 262.001 C 150.242 261.607,151.637 264.017,151.315 264.537 C 151.166 264.778,151.230 264.854,151.461 264.711 C 151.960 264.403,153.250 267.450,152.876 268.055 C 152.719 268.309,152.795 268.368,153.065 268.201 C 153.483 267.943,153.669 268.484,153.621 269.820 C 153.612 270.086,153.760 270.208,153.950 270.090 C 154.268 269.894,154.446 270.557,154.403 271.773 C 154.393 272.039,154.569 272.144,154.793 272.005 C 155.050 271.846,155.120 272.064,154.981 272.596 C 154.860 273.059,154.892 273.357,155.054 273.257 C 155.440 273.018,156.286 275.798,155.978 276.297 C 155.834 276.530,155.942 276.557,156.251 276.366 C 156.633 276.130,156.707 276.265,156.543 276.893 C 156.402 277.433,156.472 277.643,156.739 277.479 C 157.005 277.314,157.075 277.524,156.934 278.064 C 156.793 278.605,156.863 278.815,157.129 278.650 C 157.396 278.486,157.466 278.696,157.325 279.236 C 157.203 279.700,157.234 279.999,157.393 279.901 C 157.807 279.645,159.081 283.903,158.750 284.439 C 158.567 284.734,158.647 284.779,158.986 284.570 C 159.367 284.334,159.442 284.468,159.278 285.096 C 159.136 285.636,159.207 285.846,159.473 285.682 C 159.739 285.517,159.810 285.727,159.668 286.268 C 159.527 286.808,159.597 287.018,159.864 286.854 C 160.123 286.693,160.205 286.880,160.082 287.353 C 159.973 287.769,160.136 288.345,160.444 288.632 C 160.752 288.920,160.918 289.486,160.812 289.890 C 160.706 290.294,160.798 290.625,161.016 290.625 C 161.234 290.625,161.307 290.898,161.179 291.231 C 161.028 291.624,161.104 291.740,161.394 291.561 C 161.699 291.373,161.771 291.554,161.621 292.127 C 161.480 292.667,161.550 292.878,161.817 292.713 C 162.083 292.548,162.153 292.759,162.012 293.299 C 161.871 293.839,161.941 294.049,162.207 293.885 C 162.474 293.720,162.544 293.931,162.403 294.471 C 162.261 295.011,162.332 295.221,162.598 295.057 C 162.864 294.892,162.935 295.102,162.793 295.643 C 162.652 296.183,162.722 296.393,162.989 296.229 C 163.255 296.064,163.325 296.274,163.184 296.814 C 163.043 297.355,163.113 297.565,163.379 297.400 C 163.646 297.236,163.716 297.446,163.575 297.986 C 163.454 298.449,163.533 298.828,163.750 298.828 C 163.968 298.828,164.041 299.101,163.913 299.434 C 163.763 299.827,163.838 299.943,164.129 299.764 C 164.433 299.576,164.506 299.757,164.356 300.330 C 164.215 300.870,164.285 301.081,164.551 300.916 C 164.817 300.751,164.888 300.962,164.746 301.502 C 164.605 302.042,164.675 302.253,164.942 302.088 C 165.208 301.923,165.278 302.134,165.137 302.674 C 165.016 303.137,165.076 303.418,165.271 303.298 C 165.595 303.097,165.775 303.752,165.731 304.976 C 165.721 305.243,165.869 305.364,166.060 305.246 C 166.381 305.047,166.560 305.733,166.507 306.960 C 166.494 307.243,166.587 307.371,166.712 307.246 C 167.055 306.903,168.004 309.392,167.711 309.866 C 167.551 310.125,167.649 310.159,167.975 309.957 C 168.354 309.723,168.423 309.817,168.235 310.308 C 168.062 310.759,168.125 310.887,168.430 310.698 C 168.735 310.510,168.799 310.637,168.626 311.089 C 168.452 311.541,168.516 311.668,168.821 311.480 C 169.126 311.291,169.190 311.419,169.016 311.870 C 168.875 312.239,168.912 312.446,169.100 312.330 C 169.478 312.096,170.571 314.422,170.373 315.039 C 170.304 315.254,170.378 315.299,170.538 315.139 C 170.953 314.724,171.976 316.317,171.642 316.858 C 171.480 317.120,171.534 317.203,171.772 317.056 C 172.202 316.790,173.568 318.577,173.568 319.404 C 173.568 319.670,173.705 319.802,173.874 319.698 C 174.165 319.518,175.204 321.075,175.066 321.484 C 175.030 321.592,175.160 321.680,175.355 321.680 C 175.803 321.680,177.383 323.659,177.133 323.908 C 177.032 324.010,177.345 324.429,177.830 324.840 L 178.711 325.586 177.941 324.609 C 177.517 324.072,178.001 324.416,179.015 325.374 C 180.914 327.167,181.541 328.042,179.980 326.721 L 179.102 325.977 179.832 326.840 C 180.233 327.315,180.673 327.671,180.808 327.632 C 181.292 327.492,183.192 328.998,182.975 329.349 C 182.854 329.546,182.899 329.675,183.076 329.635 C 183.718 329.492,184.755 330.170,184.508 330.570 C 184.368 330.796,184.425 330.875,184.634 330.746 C 185.146 330.429,188.363 332.592,187.990 333.003 C 187.828 333.182,187.898 333.213,188.145 333.071 C 188.693 332.758,191.913 334.519,191.517 334.916 C 191.362 335.071,191.566 335.070,191.971 334.915 C 192.446 334.733,192.616 334.779,192.451 335.046 C 192.311 335.273,192.414 335.451,192.680 335.441 C 193.896 335.397,194.560 335.576,194.363 335.893 C 194.245 336.084,194.367 336.232,194.633 336.222 C 195.857 336.178,196.512 336.358,196.312 336.682 C 196.191 336.877,196.472 336.937,196.936 336.816 C 197.467 336.677,197.685 336.746,197.526 337.004 C 197.388 337.228,197.492 337.404,197.758 337.394 C 199.146 337.344,200.022 337.539,199.827 337.854 C 199.707 338.049,199.988 338.109,200.451 337.988 C 200.950 337.858,201.198 337.923,201.058 338.149 C 200.916 338.379,201.303 338.460,202.029 338.353 C 202.737 338.250,203.141 338.330,203.006 338.549 C 202.871 338.767,203.275 338.848,203.982 338.744 C 204.698 338.639,205.094 338.720,204.957 338.943 C 204.815 339.173,205.592 339.268,206.952 339.189 C 208.177 339.117,208.880 339.191,208.513 339.353 C 208.147 339.516,209.590 339.648,211.722 339.648 C 213.853 339.648,215.295 339.517,214.927 339.356 C 214.559 339.195,215.441 339.115,216.886 339.178 C 218.464 339.248,219.323 339.157,219.035 338.952 C 218.746 338.746,219.246 338.689,220.292 338.809 C 221.515 338.950,221.862 338.894,221.464 338.620 C 221.054 338.338,221.293 338.269,222.336 338.370 C 223.126 338.446,223.697 338.385,223.604 338.234 C 223.361 337.842,226.441 337.379,226.999 337.724 C 227.311 337.917,227.361 337.844,227.151 337.504 C 226.915 337.122,227.090 337.044,227.860 337.192 C 228.493 337.313,228.790 337.237,228.638 336.991 C 228.488 336.749,228.720 336.681,229.236 336.816 C 229.776 336.957,229.987 336.887,229.822 336.621 C 229.658 336.354,229.868 336.284,230.408 336.425 C 230.872 336.547,231.164 336.505,231.058 336.333 C 230.868 336.026,232.700 335.348,233.330 335.492 C 233.507 335.533,233.540 335.386,233.404 335.166 C 233.268 334.946,233.338 334.766,233.558 334.766 C 233.779 334.766,233.876 334.546,233.773 334.277 C 233.666 333.996,232.886 333.784,231.930 333.777 C 226.283 333.737,222.548 333.489,223.438 333.213 C 223.987 333.043,222.791 332.977,220.703 333.063 C 218.285 333.163,217.264 333.092,217.773 332.861 C 218.297 332.624,217.716 332.567,216.016 332.690 C 214.058 332.831,213.611 332.771,214.063 332.427 C 214.538 332.064,214.479 332.028,213.747 332.235 C 212.649 332.544,208.911 332.076,209.167 331.660 C 209.269 331.497,208.891 331.451,208.329 331.558 C 207.703 331.678,207.400 331.602,207.547 331.363 C 207.695 331.124,207.392 331.048,206.766 331.168 C 206.110 331.293,205.834 331.216,205.997 330.952 C 206.155 330.696,205.957 330.619,205.469 330.746 C 205.039 330.858,204.688 330.771,204.688 330.551 C 204.688 330.331,204.308 330.250,203.845 330.372 C 203.314 330.510,203.096 330.441,203.255 330.184 C 203.394 329.959,203.289 329.784,203.023 329.793 C 201.687 329.841,201.146 329.655,201.404 329.237 C 201.578 328.955,201.512 328.892,201.226 329.068 C 200.730 329.374,196.425 327.365,196.683 326.947 C 196.770 326.807,196.594 326.693,196.293 326.693 C 195.465 326.693,192.996 324.882,193.254 324.464 C 193.378 324.263,193.303 324.207,193.087 324.341 C 192.870 324.475,192.360 324.313,191.952 323.982 C 191.544 323.651,191.458 323.508,191.760 323.664 C 192.123 323.853,192.213 323.795,192.026 323.491 C 191.870 323.240,191.571 323.140,191.362 323.270 C 190.900 323.555,185.853 318.422,186.139 317.959 C 186.250 317.779,186.135 317.505,185.884 317.349 C 185.579 317.161,185.523 317.250,185.716 317.615 C 185.875 317.917,185.652 317.730,185.221 317.198 C 184.789 316.667,184.537 316.069,184.661 315.869 C 184.785 315.668,184.720 315.607,184.517 315.733 C 184.089 315.997,181.510 312.382,181.510 311.518 C 181.510 311.199,181.423 311.025,181.317 311.131 C 180.980 311.468,179.658 308.958,179.935 308.510 C 180.105 308.234,180.016 308.196,179.681 308.402 C 179.303 308.636,179.233 308.542,179.421 308.052 C 179.595 307.600,179.531 307.472,179.226 307.661 C 178.921 307.849,178.857 307.722,179.031 307.270 C 179.204 306.819,179.140 306.691,178.835 306.880 C 178.530 307.068,178.467 306.941,178.640 306.489 C 178.813 306.037,178.750 305.910,178.445 306.098 C 178.140 306.287,178.076 306.160,178.249 305.708 C 178.391 305.339,178.350 305.134,178.159 305.253 C 177.720 305.524,176.875 303.177,177.213 302.629 C 177.353 302.403,177.277 302.339,177.042 302.484 C 176.530 302.801,176.008 301.363,176.402 300.724 C 176.577 300.442,176.513 300.375,176.232 300.549 C 175.813 300.807,175.627 300.266,175.676 298.930 C 175.685 298.664,175.509 298.559,175.285 298.698 C 175.028 298.857,174.958 298.639,175.097 298.107 C 175.239 297.567,175.168 297.357,174.902 297.521 C 174.636 297.686,174.565 297.476,174.707 296.936 C 174.848 296.395,174.778 296.185,174.511 296.350 C 174.245 296.514,174.175 296.304,174.316 295.764 C 174.457 295.224,174.387 295.013,174.121 295.178 C 173.854 295.342,173.784 295.132,173.925 294.592 C 174.065 294.057,173.996 293.842,173.735 294.003 C 173.471 294.166,173.394 293.890,173.520 293.234 C 173.641 292.600,173.565 292.304,173.320 292.456 C 173.077 292.606,173.009 292.374,173.144 291.857 C 173.285 291.317,173.215 291.107,172.949 291.271 C 172.683 291.436,172.612 291.226,172.753 290.686 C 172.875 290.223,172.794 289.844,172.574 289.844 C 172.354 289.844,172.267 289.492,172.379 289.062 C 172.506 288.575,172.429 288.376,172.173 288.534 C 171.909 288.697,171.832 288.421,171.957 287.765 C 172.077 287.139,172.001 286.836,171.762 286.984 C 171.523 287.132,171.447 286.829,171.567 286.203 C 171.686 285.577,171.610 285.274,171.371 285.421 C 171.132 285.569,171.056 285.266,171.176 284.640 C 171.296 284.014,171.220 283.711,170.981 283.859 C 170.742 284.007,170.666 283.704,170.785 283.078 C 170.905 282.452,170.829 282.149,170.590 282.296 C 170.351 282.444,170.275 282.141,170.395 281.515 C 170.514 280.889,170.439 280.586,170.199 280.734 C 169.960 280.882,169.884 280.579,170.004 279.953 C 170.112 279.390,170.064 279.014,169.897 279.117 C 169.481 279.374,169.015 277.082,169.367 276.512 C 169.534 276.242,169.484 276.155,169.249 276.300 C 168.782 276.589,168.232 274.350,168.617 273.728 C 168.776 273.470,168.680 273.435,168.358 273.634 C 167.976 273.870,167.902 273.735,168.066 273.107 C 168.207 272.567,168.137 272.357,167.871 272.521 C 167.604 272.686,167.534 272.476,167.675 271.936 C 167.796 271.473,167.717 271.094,167.500 271.094 C 167.282 271.094,167.209 270.821,167.337 270.488 C 167.487 270.095,167.412 269.979,167.121 270.158 C 166.817 270.346,166.744 270.165,166.894 269.592 C 167.035 269.052,166.965 268.841,166.699 269.006 C 166.433 269.170,166.362 268.960,166.504 268.420 C 166.625 267.956,166.597 267.656,166.441 267.752 C 166.016 268.015,165.142 265.315,165.468 264.748 C 165.623 264.479,165.602 264.393,165.421 264.557 C 165.004 264.936,163.978 262.562,164.320 262.009 C 164.480 261.750,164.383 261.716,164.056 261.918 C 163.669 262.157,163.610 262.053,163.821 261.502 C 163.977 261.097,163.979 260.891,163.826 261.044 C 163.468 261.402,160.927 256.192,161.224 255.711 C 161.354 255.501,161.231 255.483,160.931 255.668 C 160.553 255.902,160.483 255.808,160.671 255.317 C 160.813 254.948,160.768 254.746,160.571 254.868 C 160.193 255.102,159.533 253.596,159.721 252.930 C 159.781 252.715,159.700 252.670,159.540 252.830 C 159.125 253.245,158.102 251.652,158.436 251.111 C 158.605 250.838,158.543 250.766,158.280 250.929 C 157.823 251.212,156.393 248.934,156.593 248.242 C 156.655 248.027,156.580 247.977,156.426 248.131 C 156.088 248.470,154.661 246.734,154.502 245.791 C 154.440 245.420,154.197 245.159,153.964 245.211 C 153.571 245.298,152.585 243.935,152.553 243.262 C 152.545 243.101,152.363 242.964,152.148 242.958 C 151.684 242.944,147.274 238.646,147.385 238.315 C 147.427 238.189,147.373 238.085,147.266 238.084 C 146.727 238.080,144.558 236.226,144.636 235.836 C 144.686 235.589,144.551 235.373,144.336 235.355 C 143.517 235.289,142.176 234.319,142.401 233.955 C 142.530 233.746,142.491 233.616,142.314 233.667 C 141.699 233.844,140.214 232.771,140.479 232.342 C 140.626 232.105,140.584 232.011,140.385 232.133 C 139.911 232.426,137.040 230.278,137.410 229.908 C 137.567 229.751,137.520 229.658,137.305 229.701 C 136.529 229.858,135.896 229.681,136.093 229.362 C 136.203 229.183,136.082 229.030,135.823 229.022 C 135.076 229.000,130.102 225.497,130.398 225.201 C 130.544 225.055,130.488 224.970,130.273 225.014 C 129.374 225.195,128.875 224.974,129.141 224.512 C 129.296 224.243,129.280 224.152,129.107 224.309 C 128.698 224.679,125.747 223.028,126.021 222.584 C 126.136 222.398,126.085 222.271,125.908 222.302 C 125.049 222.451,124.588 222.223,124.844 221.777 C 124.999 221.509,124.983 221.418,124.810 221.575 C 124.372 221.971,121.460 220.277,121.756 219.799 C 121.888 219.585,121.834 219.511,121.635 219.633 C 121.150 219.933,118.283 218.175,118.653 217.805 C 118.814 217.644,118.770 217.548,118.555 217.592 C 117.718 217.761,117.153 217.560,117.389 217.178 C 117.525 216.958,117.491 216.803,117.314 216.833 C 116.482 216.978,115.995 216.755,116.248 216.346 C 116.421 216.067,116.355 216.001,116.077 216.173 C 115.536 216.507,113.943 215.484,114.358 215.069 C 114.518 214.909,114.473 214.814,114.258 214.857 C 113.422 215.026,112.856 214.825,113.092 214.443 C 113.228 214.223,113.194 214.068,113.017 214.099 C 112.220 214.238,111.694 214.028,111.920 213.662 C 112.056 213.442,112.023 213.287,111.845 213.318 C 111.048 213.456,110.522 213.247,110.748 212.881 C 110.884 212.661,110.851 212.506,110.674 212.537 C 109.876 212.675,109.350 212.466,109.576 212.100 C 109.712 211.880,109.679 211.725,109.502 211.755 C 108.704 211.894,108.178 211.685,108.404 211.318 C 108.540 211.098,108.507 210.943,108.330 210.974 C 107.471 211.123,107.009 210.895,107.266 210.449 C 107.421 210.181,107.408 210.087,107.238 210.240 C 106.780 210.653,105.402 209.799,105.713 209.295 C 105.860 209.058,105.804 208.973,105.587 209.106 C 105.103 209.406,102.498 207.518,102.646 206.975 C 102.705 206.759,102.613 206.670,102.440 206.776 C 102.268 206.883,101.692 206.617,101.161 206.186 C 100.630 205.754,100.442 205.531,100.744 205.691 C 101.109 205.883,101.198 205.827,101.010 205.523 C 100.854 205.271,100.582 205.155,100.405 205.264 C 100.228 205.374,98.954 204.366,97.574 203.025 C 96.194 201.683,95.779 201.201,96.653 201.953 L 98.242 203.320 96.714 201.676 C 95.873 200.772,95.054 200.114,94.893 200.213 C 94.470 200.475,92.154 197.435,92.491 197.062 C 92.646 196.890,92.572 196.865,92.326 197.005 C 91.870 197.266,91.205 196.217,91.377 195.508 C 91.429 195.293,91.345 195.243,91.192 195.397 C 90.788 195.800,88.592 192.632,88.914 192.112 C 89.071 191.858,89.007 191.785,88.760 191.938 C 88.356 192.187,87.639 190.788,87.823 190.108 C 87.871 189.931,87.700 189.915,87.443 190.074 C 87.122 190.273,87.057 190.153,87.234 189.692 C 87.407 189.241,87.343 189.113,87.039 189.302 C 86.734 189.490,86.670 189.363,86.843 188.911 C 87.017 188.459,86.953 188.332,86.648 188.520 C 86.343 188.709,86.279 188.581,86.453 188.130 C 86.594 187.761,86.559 187.553,86.374 187.667 C 85.913 187.952,84.638 184.506,84.993 183.933 C 85.183 183.625,85.108 183.578,84.764 183.790 C 84.383 184.026,84.308 183.892,84.472 183.264 C 84.612 182.729,84.542 182.514,84.282 182.675 C 84.018 182.838,83.941 182.562,84.067 181.906 C 84.186 181.280,84.110 180.977,83.871 181.125 C 83.632 181.272,83.556 180.969,83.676 180.343 C 83.793 179.730,83.718 179.415,83.488 179.557 C 83.255 179.702,83.169 179.250,83.268 178.401 C 83.357 177.635,83.276 177.103,83.087 177.220 C 82.894 177.340,82.823 175.747,82.925 173.580 C 83.036 171.228,82.998 170.488,82.828 171.680 C 82.627 173.089,82.531 173.296,82.486 172.422 C 82.368 170.189,82.926 165.176,83.236 165.678 C 83.403 165.949,83.438 165.405,83.312 164.471 C 83.133 163.132,83.193 162.838,83.595 163.086 C 83.949 163.305,84.011 163.250,83.798 162.905 C 83.436 162.320,84.356 158.146,84.788 158.412 C 84.951 158.513,84.984 158.216,84.863 157.752 C 84.724 157.221,84.793 157.002,85.051 157.161 C 85.275 157.300,85.451 157.196,85.441 156.929 C 85.393 155.593,85.579 155.052,85.998 155.311 C 86.277 155.483,86.343 155.418,86.170 155.138 C 85.783 154.513,85.749 154.530,84.548 155.957 M358.789 158.984 C 359.628 159.844,360.403 160.547,360.510 160.547 C 360.618 160.547,360.019 159.844,359.180 158.984 C 358.341 158.125,357.566 157.422,357.459 157.422 C 357.351 157.422,357.950 158.125,358.789 158.984 M45.093 161.035 L 43.945 162.305 45.215 161.157 C 46.398 160.088,46.664 159.766,46.362 159.766 C 46.295 159.766,45.724 160.337,45.093 161.035 M363.666 236.230 L 358.789 241.211 363.770 236.334 C 368.396 231.804,368.927 231.250,368.646 231.250 C 368.590 231.250,366.348 233.491,363.666 236.230 M50.391 248.950 C 50.391 249.018,50.962 249.589,51.660 250.220 L 52.930 251.367 51.782 250.098 C 50.713 248.914,50.391 248.649,50.391 248.950 M68.945 267.969 C 70.654 269.688,72.140 271.094,72.247 271.094 C 72.355 271.094,71.045 269.688,69.336 267.969 C 67.627 266.250,66.141 264.844,66.034 264.844 C 65.927 264.844,67.237 266.250,68.945 267.969 M91.602 291.016 C 93.094 292.520,94.403 293.750,94.510 293.750 C 94.618 293.750,93.485 292.520,91.992 291.016 C 90.500 289.512,89.191 288.281,89.083 288.281 C 88.976 288.281,90.109 289.512,91.602 291.016 M308.384 291.895 L 306.445 293.945 308.496 292.007 C 310.402 290.206,310.726 289.844,310.435 289.844 C 310.373 289.844,309.450 290.767,308.384 291.895 M298.629 301.660 L 291.211 309.180 298.730 301.762 C 302.866 297.682,306.250 294.298,306.250 294.242 C 306.250 293.964,305.521 294.674,298.629 301.660 M115.430 315.234 C 116.922 316.738,118.231 317.969,118.338 317.969 C 118.446 317.969,117.313 316.738,115.820 315.234 C 114.328 313.730,113.019 312.500,112.912 312.500 C 112.804 312.500,113.937 313.730,115.430 315.234 M273.218 326.660 L 272.070 327.930 273.340 326.782 C 274.038 326.151,274.609 325.580,274.609 325.513 C 274.609 325.211,274.287 325.477,273.218 326.660 M135.547 335.654 C 135.547 335.713,136.909 337.076,138.574 338.682 L 141.602 341.602 138.682 338.574 C 135.970 335.762,135.547 335.369,135.547 335.654 M158.008 358.594 C 159.066 359.668,160.019 360.547,160.127 360.547 C 160.234 360.547,159.457 359.668,158.398 358.594 C 157.340 357.520,156.387 356.641,156.279 356.641 C 156.172 356.641,156.950 357.520,158.008 358.594 " stroke="none" fill="#041b43" fill-rule="evenodd"/>
    <path id="path2" d="M264.063 62.232 C 264.063 62.299,264.634 62.870,265.332 63.501 L 266.602 64.648 265.454 63.379 C 264.385 62.196,264.063 61.930,264.063 62.232 M278.906 77.466 C 278.906 77.533,279.478 78.104,280.176 78.736 L 281.445 79.883 280.298 78.613 C 279.229 77.430,278.906 77.164,278.906 77.466 M295.508 94.531 C 296.347 95.391,297.121 96.094,297.229 96.094 C 297.336 96.094,296.738 95.391,295.898 94.531 C 295.059 93.672,294.285 92.969,294.177 92.969 C 294.070 92.969,294.669 93.672,295.508 94.531 M329.492 129.297 C 330.331 130.156,331.106 130.859,331.213 130.859 C 331.321 130.859,330.722 130.156,329.883 129.297 C 329.044 128.438,328.269 127.734,328.162 127.734 C 328.054 127.734,328.653 128.438,329.492 129.297 M220.794 134.375 C 220.794 135.127,220.874 135.435,220.972 135.059 C 221.071 134.683,221.071 134.067,220.972 133.691 C 220.874 133.315,220.794 133.623,220.794 134.375 M355.452 155.566 C 356.410 156.587,357.245 157.422,357.308 157.422 C 357.601 157.422,357.291 157.071,355.566 155.452 L 353.711 153.711 355.452 155.566 M91.127 162.695 C 91.130 163.770,91.206 164.163,91.296 163.569 C 91.386 162.975,91.383 162.096,91.291 161.616 C 91.198 161.135,91.124 161.621,91.127 162.695 M365.234 165.747 C 365.234 165.814,365.806 166.386,366.504 167.017 L 367.773 168.164 366.626 166.895 C 365.557 165.711,365.234 165.445,365.234 165.747 M35.921 234.082 C 37.540 235.807,37.891 236.117,37.891 235.824 C 37.891 235.761,37.056 234.926,36.035 233.968 L 34.180 232.227 35.921 234.082 M356.433 243.457 L 354.102 245.898 356.543 243.567 C 357.886 242.285,358.984 241.186,358.984 241.126 C 358.984 240.837,358.599 241.189,356.433 243.457 M347.846 252.051 L 342.773 257.227 347.949 252.154 C 352.757 247.442,353.302 246.875,353.022 246.875 C 352.965 246.875,350.636 249.204,347.846 252.051 M334.745 265.137 L 333.398 266.602 334.863 265.255 C 336.227 264.002,336.508 263.672,336.209 263.672 C 336.144 263.672,335.485 264.331,334.745 265.137 M73.633 272.656 C 74.472 273.516,75.246 274.219,75.354 274.219 C 75.461 274.219,74.863 273.516,74.023 272.656 C 73.184 271.797,72.410 271.094,72.302 271.094 C 72.195 271.094,72.794 271.797,73.633 272.656 M96.680 296.094 C 97.955 297.383,99.087 298.438,99.194 298.438 C 99.302 298.438,98.346 297.383,97.070 296.094 C 95.795 294.805,94.663 293.750,94.556 293.750 C 94.448 293.750,95.404 294.805,96.680 296.094 M288.281 311.914 C 286.681 313.525,285.459 314.844,285.566 314.844 C 285.674 314.844,287.071 313.525,288.672 311.914 C 290.272 310.303,291.494 308.984,291.387 308.984 C 291.279 308.984,289.882 310.303,288.281 311.914 M123.438 323.242 C 124.604 324.424,125.647 325.391,125.755 325.391 C 125.862 325.391,124.995 324.424,123.828 323.242 C 122.661 322.061,121.618 321.094,121.511 321.094 C 121.404 321.094,122.271 322.061,123.438 323.242 M142.578 342.773 C 143.307 343.525,143.991 344.141,144.099 344.141 C 144.206 344.141,143.698 343.525,142.969 342.773 C 142.240 342.021,141.556 341.406,141.448 341.406 C 141.341 341.406,141.849 342.021,142.578 342.773 M160.156 360.669 C 160.156 360.736,160.728 361.308,161.426 361.939 L 162.695 363.086 161.548 361.816 C 160.479 360.633,160.156 360.367,160.156 360.669 M199.519 378.017 C 200.221 378.104,201.275 378.103,201.862 378.013 C 202.449 377.924,201.875 377.853,200.586 377.855 C 199.297 377.858,198.817 377.931,199.519 378.017 " stroke="none" fill="#5e7089" fill-rule="evenodd"/>
    <path id="path3" d="M228.968 29.647 C 228.680 31.206,228.513 32.550,228.597 32.634 C 228.848 32.885,229.775 28.283,229.628 27.518 C 229.553 27.130,229.256 28.089,228.968 29.647 M230.469 27.306 C 230.469 27.598,236.229 33.659,243.269 40.774 C 250.310 47.889,262.741 60.566,270.894 68.945 C 279.047 77.324,289.855 88.398,294.911 93.555 C 299.966 98.711,308.063 106.973,312.902 111.914 C 317.742 116.855,330.310 129.688,340.831 140.430 C 373.638 173.926,372.821 173.009,377.038 181.055 C 378.052 182.988,378.887 184.435,378.894 184.269 C 378.989 181.931,372.623 172.707,366.430 166.211 C 362.470 162.057,322.085 120.744,300.179 98.438 C 295.432 93.604,284.976 82.881,276.944 74.609 C 261.939 59.158,249.272 46.217,238.721 35.558 C 235.419 32.222,232.211 28.881,231.592 28.134 C 230.974 27.386,230.469 27.014,230.469 27.306 M227.947 34.979 C 227.798 35.975,227.756 36.870,227.853 36.968 C 227.951 37.066,228.153 36.330,228.303 35.334 C 228.452 34.337,228.494 33.442,228.397 33.345 C 228.299 33.247,228.097 33.982,227.947 34.979 M226.635 42.232 C 226.165 44.918,225.795 47.545,225.811 48.070 C 225.827 48.594,226.267 46.564,226.789 43.559 C 227.310 40.553,227.681 37.926,227.613 37.721 C 227.544 37.516,227.104 39.546,226.635 42.232 M225.180 51.352 C 225.029 52.562,224.990 53.636,225.093 53.739 C 225.196 53.842,225.398 52.930,225.541 51.713 C 225.684 50.495,225.723 49.421,225.628 49.326 C 225.533 49.231,225.331 50.143,225.180 51.352 M224.074 59.855 C 222.880 70.102,222.274 76.353,222.322 77.930 C 222.348 78.789,222.517 77.998,222.697 76.172 C 222.877 74.346,223.483 68.750,224.045 63.738 C 224.607 58.725,224.989 54.547,224.895 54.453 C 224.801 54.358,224.431 56.790,224.074 59.855 M100.112 105.337 C 28.957 176.436,29.462 175.901,25.508 184.375 C 23.326 189.050,23.733 188.921,26.119 184.180 C 30.681 175.118,28.521 177.394,105.469 100.540 L 149.805 56.259 150.120 61.821 C 150.294 64.880,150.367 70.195,150.283 73.633 C 150.166 78.358,150.215 79.311,150.483 77.539 C 150.895 74.812,150.503 56.602,150.022 56.118 C 149.844 55.938,127.384 78.087,100.112 105.337 M221.996 81.836 C 221.998 83.125,222.071 83.605,222.158 82.903 C 222.245 82.201,222.243 81.146,222.154 80.559 C 222.065 79.972,221.994 80.547,221.996 81.836 M147.931 88.122 C 144.432 100.573,136.687 110.092,120.703 121.586 C 97.292 138.423,88.091 154.711,92.509 171.496 C 96.426 186.376,104.813 195.008,130.078 210.163 C 159.806 227.995,171.381 243.019,179.528 274.347 C 180.356 277.533,181.092 279.967,181.163 279.755 C 181.744 278.009,175.358 258.841,171.705 251.367 C 163.088 233.738,153.065 223.521,132.031 210.922 C 108.452 196.799,99.071 188.372,94.880 177.551 C 86.855 156.831,94.204 141.621,122.285 120.831 C 134.786 111.576,140.792 105.123,145.128 96.289 C 147.050 92.372,149.404 85.516,149.119 84.662 C 149.055 84.469,148.520 86.027,147.931 88.122 M221.285 89.587 C 221.130 92.480,221.084 95.083,221.182 95.373 C 221.280 95.662,221.489 93.377,221.647 90.296 C 221.804 87.215,221.851 84.611,221.750 84.511 C 221.649 84.410,221.440 86.694,221.285 89.587 M220.497 103.809 C 220.104 113.685,220.537 142.581,221.246 153.906 C 222.165 168.561,222.806 176.814,222.967 176.044 C 223.049 175.652,222.840 171.433,222.503 166.669 C 221.034 145.880,220.898 141.889,220.898 119.434 C 220.898 106.811,220.874 96.484,220.843 96.484 C 220.813 96.484,220.657 99.780,220.497 103.809 M84.190 155.957 C 80.467 160.024,79.392 162.400,75.750 174.609 C 75.333 176.006,74.927 178.555,74.848 180.273 C 74.768 181.992,74.773 182.783,74.859 182.031 C 75.365 177.591,75.955 175.066,77.902 169.015 C 80.043 162.360,81.160 160.070,83.896 156.731 C 85.640 154.602,85.783 154.792,84.748 157.865 C 83.573 161.352,82.902 165.174,82.667 169.727 L 82.464 173.633 83.007 168.706 C 83.615 163.192,84.716 158.440,86.124 155.255 C 87.318 152.556,87.296 152.564,84.190 155.957 M83.012 176.295 C 83.382 182.220,86.300 189.406,90.823 195.534 C 96.789 203.616,102.188 207.879,123.438 221.286 C 149.600 237.792,159.174 248.181,166.017 267.489 C 166.723 269.481,167.367 271.044,167.448 270.963 C 168.250 270.162,161.715 256.151,157.846 250.374 C 150.435 239.310,143.802 233.740,120.383 218.916 C 93.758 202.063,85.511 192.612,83.225 176.329 L 82.846 173.633 83.012 176.295 M223.128 178.906 C 223.120 180.088,223.529 184.834,224.036 189.453 C 224.544 194.072,224.867 196.357,224.756 194.531 C 224.402 188.750,223.143 176.666,223.128 178.906 M75.162 185.964 C 76.035 198.046,89.786 214.045,109.195 225.560 C 117.437 230.450,119.077 231.474,123.242 234.337 C 136.362 243.354,145.521 253.194,151.100 264.266 C 153.174 268.381,153.877 270.166,157.260 279.883 C 158.830 284.395,160.124 287.884,160.136 287.638 C 160.212 285.962,153.003 266.738,150.855 262.891 C 142.955 248.741,131.423 238.039,111.914 226.754 C 90.744 214.508,78.272 200.769,75.569 186.719 C 75.040 183.969,75.015 183.923,75.162 185.964 M379.100 185.352 C 380.470 189.591,381.325 193.282,381.521 195.801 C 381.650 197.466,381.873 198.828,382.015 198.828 C 382.855 198.828,380.478 187.079,379.257 185.201 C 378.915 184.674,378.889 184.699,379.100 185.352 M23.078 190.509 C 22.282 193.464,22.263 194.693,23.053 192.038 C 23.494 190.559,23.772 189.267,23.671 189.166 C 23.571 189.066,23.304 189.670,23.078 190.509 M21.733 196.734 C 20.644 204.679,22.432 215.078,26.081 222.022 C 29.220 227.995,32.096 231.038,92.586 292.383 C 116.851 316.990,129.713 330.070,146.294 346.998 C 165.290 366.393,167.508 368.312,175.624 372.378 C 181.070 375.106,189.501 377.800,192.300 377.705 C 192.775 377.689,191.582 377.336,189.648 376.921 C 182.394 375.363,175.492 372.411,169.001 368.091 C 164.774 365.276,163.242 363.814,144.726 344.922 C 132.423 332.370,117.998 317.691,98.851 298.242 C 34.147 232.517,31.477 229.751,28.460 225.308 C 23.748 218.370,21.569 209.851,21.971 199.940 C 22.188 194.590,22.131 193.826,21.733 196.734 M225.087 199.414 C 225.076 200.273,225.294 202.559,225.570 204.492 C 225.847 206.426,226.081 207.393,226.089 206.641 C 226.098 205.889,225.880 203.604,225.606 201.563 C 225.331 199.521,225.097 198.555,225.087 199.414 M381.762 204.102 C 381.764 205.391,381.837 205.871,381.924 205.169 C 382.011 204.467,382.009 203.412,381.920 202.825 C 381.831 202.238,381.759 202.813,381.762 204.102 M381.092 208.398 C 380.269 213.606,377.429 220.044,373.512 225.579 C 371.973 227.755,363.469 236.583,345.664 254.492 C 331.566 268.672,312.292 288.094,302.833 297.651 L 285.635 315.029 283.762 314.528 C 282.731 314.253,278.448 312.310,274.245 310.212 C 249.551 297.884,241.362 289.477,236.527 271.494 C 235.804 268.803,235.200 266.865,235.185 267.188 C 235.027 270.590,239.665 282.625,243.071 287.647 C 249.013 296.410,271.904 311.748,283.782 314.924 L 285.592 315.409 306.750 294.130 C 376.587 223.892,372.244 228.388,375.959 222.471 C 378.953 217.702,382.016 209.256,381.540 207.082 C 381.464 206.732,381.262 207.324,381.092 208.398 M226.258 209.375 C 226.248 210.127,226.377 211.621,226.545 212.695 C 226.791 214.275,226.852 214.387,226.867 213.281 C 226.877 212.529,226.748 211.035,226.580 209.961 C 226.334 208.381,226.273 208.269,226.258 209.375 M227.188 217.578 C 227.420 220.898,228.807 230.403,228.840 228.906 C 228.852 228.369,228.439 224.941,227.922 221.289 C 227.405 217.637,227.075 215.967,227.188 217.578 M228.940 230.664 C 228.868 232.647,233.953 262.981,234.767 265.430 C 235.278 266.966,235.266 266.891,232.824 253.125 C 231.776 247.217,230.542 239.746,230.083 236.523 C 229.228 230.520,228.989 229.295,228.940 230.664 M167.607 271.574 C 167.591 271.731,168.097 273.664,168.730 275.871 C 169.364 278.077,170.442 282.130,171.126 284.877 C 171.809 287.623,172.444 289.796,172.535 289.704 C 172.751 289.489,169.326 276.048,168.369 273.355 C 167.966 272.219,167.622 271.417,167.607 271.574 M181.281 280.751 C 181.141 282.920,186.067 297.961,188.525 302.869 C 198.486 322.757,217.819 329.752,251.172 325.535 C 253.857 325.195,256.128 324.848,256.217 324.763 C 256.500 324.497,255.250 324.592,250.704 325.186 C 238.593 326.766,229.651 326.706,219.922 324.979 C 199.484 321.350,189.862 311.352,183.172 286.792 C 181.438 280.426,181.325 280.066,181.281 280.751 M160.168 288.672 C 160.168 288.994,160.339 289.521,160.547 289.844 C 160.883 290.365,160.926 290.365,160.926 289.844 C 160.926 289.521,160.755 288.994,160.547 288.672 C 160.210 288.151,160.168 288.151,160.168 288.672 M172.688 290.544 C 172.411 295.000,180.868 312.170,186.721 319.033 C 190.894 323.926,202.848 331.657,204.181 330.325 C 204.316 330.189,204.204 330.078,203.931 330.078 C 203.659 330.078,201.961 329.387,200.158 328.542 C 187.994 322.842,180.015 312.394,174.185 294.531 C 173.379 292.061,172.705 290.266,172.688 290.544 M161.101 291.279 C 161.905 293.897,163.617 298.572,163.642 298.218 C 163.681 297.677,161.412 290.964,161.088 290.662 C 160.952 290.534,160.958 290.812,161.101 291.279 M163.909 299.609 C 168.636 318.733,186.977 336.961,203.370 338.826 C 205.178 339.032,205.155 339.015,202.918 338.496 C 185.721 334.503,172.492 322.227,165.855 304.102 C 164.234 299.673,163.515 298.014,163.909 299.609 M268.068 322.771 C 264.793 323.211,262.192 323.650,262.288 323.747 C 262.563 324.021,273.979 322.562,274.395 322.199 C 274.629 321.995,274.629 321.893,274.395 321.923 C 274.190 321.949,271.344 322.331,268.068 322.771 M258.008 324.219 C 256.679 324.457,256.621 324.503,257.617 324.531 C 258.262 324.550,259.492 324.419,260.352 324.241 C 262.396 323.818,260.354 323.799,258.008 324.219 M254.883 345.260 C 235.898 364.195,233.823 366.143,229.883 368.730 C 219.072 375.828,209.454 378.584,197.461 378.021 C 194.655 377.889,193.774 377.930,194.922 378.139 C 210.432 380.955,226.695 374.065,242.947 357.795 C 261.210 339.511,275.953 324.609,275.779 324.610 C 275.673 324.611,266.270 333.903,254.883 345.260 M206.250 331.070 C 208.968 331.981,214.198 332.802,218.326 332.965 C 220.385 333.046,221.455 333.045,220.703 332.962 C 219.951 332.880,217.666 332.631,215.625 332.410 C 213.584 332.188,210.771 331.765,209.375 331.469 C 204.925 330.528,204.452 330.468,206.250 331.070 M222.689 333.344 C 222.778 333.422,225.225 333.574,228.125 333.682 C 231.271 333.799,232.689 333.754,231.641 333.570 C 229.895 333.263,222.377 333.074,222.689 333.344 M233.767 334.340 C 234.499 335.523,223.308 338.546,215.820 339.188 L 214.258 339.322 216.045 339.387 C 218.406 339.474,225.769 338.130,229.578 336.918 C 232.640 335.943,235.708 334.027,234.254 333.998 C 233.866 333.991,233.646 334.144,233.767 334.340 M207.422 339.453 C 209.654 339.779,214.315 339.952,214.030 339.699 C 213.940 339.620,211.934 339.461,209.570 339.347 C 206.642 339.206,205.958 339.240,207.422 339.453 " stroke="none" fill="#040414" fill-rule="evenodd"/>
    <path id="path4" d="M231.641 29.419 C 231.641 29.486,232.212 30.058,232.910 30.689 L 234.180 31.836 233.032 30.566 C 231.963 29.383,231.641 29.117,231.641 29.419 M245.296 43.066 C 246.254 44.087,247.089 44.922,247.152 44.922 C 247.445 44.922,247.135 44.571,245.410 42.952 L 243.555 41.211 245.296 43.066 M142.376 63.770 L 138.086 68.164 142.480 63.874 C 146.562 59.889,147.052 59.375,146.771 59.375 C 146.713 59.375,144.736 61.353,142.376 63.770 M261.719 59.888 C 261.719 59.955,262.290 60.526,262.988 61.157 L 264.258 62.305 263.111 61.035 C 262.041 59.852,261.719 59.586,261.719 59.888 M150.112 68.555 C 150.115 69.629,150.191 70.022,150.280 69.428 C 150.370 68.834,150.368 67.956,150.275 67.475 C 150.182 66.995,150.109 67.480,150.112 68.555 M150.106 72.656 C 150.106 73.623,150.183 74.019,150.276 73.535 C 150.369 73.052,150.369 72.261,150.276 71.777 C 150.183 71.294,150.106 71.689,150.106 72.656 M276.563 75.122 C 276.563 75.189,277.134 75.761,277.832 76.392 L 279.102 77.539 277.954 76.270 C 276.885 75.086,276.563 74.820,276.563 75.122 M121.478 84.668 L 116.992 89.258 121.582 84.772 C 125.845 80.605,126.349 80.078,126.068 80.078 C 126.011 80.078,123.945 82.144,121.478 84.668 M292.383 91.406 C 293.222 92.266,293.996 92.969,294.104 92.969 C 294.211 92.969,293.613 92.266,292.773 91.406 C 291.934 90.547,291.160 89.844,291.052 89.844 C 290.945 89.844,291.544 90.547,292.383 91.406 M220.810 109.375 C 220.810 110.342,220.886 110.737,220.979 110.254 C 221.072 109.771,221.072 108.979,220.979 108.496 C 220.886 108.013,220.810 108.408,220.810 109.375 M310.140 109.473 C 311.098 110.493,311.933 111.328,311.995 111.328 C 312.289 111.328,311.979 110.977,310.254 109.359 L 308.398 107.617 310.140 109.473 M220.802 131.836 C 220.806 132.695,220.886 133.001,220.979 132.515 C 221.073 132.029,221.069 131.326,220.972 130.952 C 220.874 130.579,220.797 130.977,220.802 131.836 M348.047 148.154 C 348.047 148.213,349.409 149.576,351.074 151.182 L 354.102 154.102 351.182 151.074 C 348.470 148.262,348.047 147.869,348.047 148.154 M84.546 155.176 L 83.398 156.445 84.668 155.298 C 85.366 154.667,85.938 154.096,85.938 154.028 C 85.938 153.727,85.615 153.992,84.546 155.176 M49.588 156.543 L 48.242 158.008 49.707 156.662 C 51.070 155.409,51.351 155.078,51.053 155.078 C 50.988 155.078,50.329 155.737,49.588 156.543 M39.648 237.891 C 40.707 238.965,41.660 239.844,41.768 239.844 C 41.875 239.844,41.097 238.965,40.039 237.891 C 38.981 236.816,38.027 235.938,37.920 235.938 C 37.813 235.938,38.590 236.816,39.648 237.891 M55.843 254.395 C 56.801 255.415,57.636 256.250,57.699 256.250 C 57.992 256.250,57.682 255.899,55.957 254.281 L 54.102 252.539 55.843 254.395 M338.464 261.426 L 336.133 263.867 338.574 261.536 C 339.917 260.253,341.016 259.155,341.016 259.094 C 341.016 258.806,340.630 259.158,338.464 261.426 M329.485 270.410 L 325.586 274.414 329.590 270.515 C 331.792 268.371,333.594 266.569,333.594 266.511 C 333.594 266.229,333.106 266.691,329.485 270.410 M78.516 277.539 C 80.332 279.365,81.907 280.859,82.014 280.859 C 82.121 280.859,80.723 279.365,78.906 277.539 C 77.090 275.713,75.515 274.219,75.408 274.219 C 75.300 274.219,76.699 275.713,78.516 277.539 M101.563 300.977 C 102.947 302.373,104.167 303.516,104.274 303.516 C 104.382 303.516,103.337 302.373,101.953 300.977 C 100.569 299.580,99.349 298.438,99.241 298.438 C 99.134 298.438,100.178 299.580,101.563 300.977 M127.148 326.953 C 127.988 327.813,128.762 328.516,128.869 328.516 C 128.977 328.516,128.378 327.813,127.539 326.953 C 126.700 326.094,125.925 325.391,125.818 325.391 C 125.711 325.391,126.309 326.094,127.148 326.953 M266.983 332.910 L 263.867 336.133 267.090 333.017 C 270.083 330.123,270.491 329.688,270.206 329.688 C 270.147 329.688,268.697 331.138,266.983 332.910 M255.270 344.629 L 247.461 352.539 255.371 344.730 C 262.721 337.475,263.458 336.719,263.180 336.719 C 263.124 336.719,259.565 340.278,255.270 344.629 M145.898 346.094 C 146.957 347.168,147.910 348.047,148.018 348.047 C 148.125 348.047,147.347 347.168,146.289 346.094 C 145.231 345.020,144.277 344.141,144.170 344.141 C 144.063 344.141,144.840 345.020,145.898 346.094 " stroke="none" fill="#788ca4" fill-rule="evenodd"/>
  </g>
</svg>